<svg id="Layer_1" data-name="Layer 1" xmlns="http://www.w3.org/2000/svg" width="200" height="200" viewBox="0 0 200 200"><defs><style>.cls-1{fill:#fff;}</style></defs><title>book-table</title><path class="cls-1" d="M163.82,89.15H36.73a6.39,6.39,0,0,1,0-12.77H163.82a6.39,6.39,0,1,1,0,12.77Z"/><path class="cls-1" d="M131,186.68a6.39,6.39,0,0,1-6.38-6.39V119a6.38,6.38,0,0,1,6.38-6.38h62.58a6.38,6.38,0,0,1,0,12.76H137.43v54.91A6.39,6.39,0,0,1,131,186.68Z"/><path class="cls-1" d="M177.08,148.33H131a6.38,6.38,0,1,1,0-12.76h46a6.38,6.38,0,1,1,0,12.76Z"/><path class="cls-1" d="M193.62,186.68a6.39,6.39,0,0,1-6.39-6.39V43.8a6.39,6.39,0,0,1,12.77,0V180.29A6.39,6.39,0,0,1,193.62,186.68Z"/><path class="cls-1" d="M69.51,186.68a6.39,6.39,0,0,1-6.39-6.39V125.38H6.92a6.38,6.38,0,1,1,0-12.76H69.51A6.38,6.38,0,0,1,75.89,119v61.29A6.39,6.39,0,0,1,69.51,186.68Z"/><path class="cls-1" d="M53,148.33h-46a6.38,6.38,0,1,1,0-12.76H53a6.38,6.38,0,0,1,0,12.76Z"/><path class="cls-1" d="M6.92,186.68a6.39,6.39,0,0,1-6.39-6.39V43.8a6.39,6.39,0,0,1,12.77,0V180.29A6.39,6.39,0,0,1,6.92,186.68Z"/><path class="cls-1" d="M100.27,186.68a6.39,6.39,0,0,1-6.39-6.39V99.76a6.39,6.39,0,0,1,12.77,0v80.53A6.39,6.39,0,0,1,100.27,186.68Z"/><path class="cls-1" d="M100.71,72.07c-8.69,0-14.92-2.48-18.53-7.37-6.18-8.4-2.42-20.56.91-31.29,1.59-5.15,3.24-10.48,3.24-13.81a6.39,6.39,0,0,1,6.39-6.38H109.3a6.38,6.38,0,1,1,0,12.76H98.37c-.72,3.55-1.88,7.31-3.09,11.2-2.19,7.07-5.18,16.74-2.82,19.94,1,1.39,4,2.18,8.25,2.18,3.84,0,6.65-.66,7.52-1.77,1.75-2.22-.11-9.81-1.47-15.34-.54-2.22-1.08-4.45-1.53-6.64A6.38,6.38,0,1,1,117.73,33c.42,2,.93,4.1,1.43,6.16,2.31,9.41,4.69,19.15-.88,26.26C114.76,69.89,109,72.07,100.71,72.07Z"/></svg>
