<svg id="Layer_1" data-name="Layer 1" xmlns="http://www.w3.org/2000/svg" width="200" height="200" viewBox="0 0 200 200"><defs><style>.cls-1{fill:#c5c5c5;}</style></defs><title>call</title><path class="cls-1" d="M63.68,200.45a77.7,77.7,0,0,1-39.32-10.3A6.64,6.64,0,1,1,31,178.65c37.18,21.42,85.18-.45,116.24-31.64,30.84-31,52.34-78.75,30.86-115.67a6.64,6.64,0,1,1,11.47-6.68c25,43,1.49,97.14-32.93,131.71C131.94,181.17,97.25,200.45,63.68,200.45Z"/><path class="cls-1" d="M11.88,178.86a6.61,6.61,0,0,1-4.68-1.94,24.91,24.91,0,0,1,0-35.19l13.58-13.58a24.88,24.88,0,0,1,35.18,0c10.53,10.54,20.17,16.7,33,12.49,16.94-5.55,45.65-34.27,51.21-51.21,4.2-12.81-2-22.45-12.49-33a24.88,24.88,0,0,1,0-35.19L141.23,7.7a24.87,24.87,0,0,1,35.18,0A6.63,6.63,0,0,1,167,17.08a11.88,11.88,0,0,0-16.42,0L137,30.65a11.61,11.61,0,0,0,0,16.42C147.9,57.92,159.5,73,152.76,93.57c-6.89,21-38.68,52.81-59.69,59.68C72.51,160,57.42,148.4,46.56,137.54a11.88,11.88,0,0,0-16.4,0L16.58,151.11a11.63,11.63,0,0,0,0,16.42,6.63,6.63,0,0,1-4.69,11.33Z"/></svg>