<svg id="Layer_1" data-name="Layer 1" xmlns="http://www.w3.org/2000/svg" width="200" height="200" viewBox="0 0 200 200"><defs><style>.cls-1{fill:#c5c5c5;}</style></defs><title>e-mail</title><path class="cls-1" d="M53.85,193.76a6.24,6.24,0,0,1-2.39-.47,6.39,6.39,0,0,1-4-6L48,147C36.14,141.76,4.1,124.71.33,90.57c-1.92-17.4,4.52-35,18.13-49.56,19.73-21.1,51.62-32.29,87.46-30.78C139.61,11.68,167.55,24,184.58,45,196.66,59.87,202,77.87,199.31,94.36c-6.39,38.6-41.9,62.57-92.7,62.57a6.4,6.4,0,0,1,0-12.8c44.77,0,74.7-19.39,80.07-51.85,2.13-12.89-2.26-27.18-12-39.22C160,35,135.35,24.31,105.37,23,73.2,21.59,45,31.38,27.81,49.75c-11,11.79-16.26,25.79-14.75,39.42,3.66,33.2,43.15,47.31,43.55,47.45a6.41,6.41,0,0,1,4.29,6.14l-.41,28.13,22.87-24.46a6.4,6.4,0,1,1,9.35,8.74L58.53,191.73A6.42,6.42,0,0,1,53.85,193.76Z"/><path class="cls-1" d="M81.73,130.1a6.4,6.4,0,0,1-6.4-6.4V48.81a6.4,6.4,0,1,1,12.8,0V123.7A6.39,6.39,0,0,1,81.73,130.1Z"/><path class="cls-1" d="M90.39,90.38H73.08c-4.87,0-13-2-13-15.62V48.81a6.4,6.4,0,1,1,12.8,0v26a14.58,14.58,0,0,0,.2,2.82H90.42a14.58,14.58,0,0,0,.2-2.82V48.81a6.4,6.4,0,0,1,12.8,0v26C103.42,88.35,95.26,90.38,90.39,90.38Z"/><path class="cls-1" d="M133.55,130.1a6.39,6.39,0,0,1-6.4-6.4V102.84a6.4,6.4,0,0,1-8.63-6V62.24c0-13.15,5.06-19.83,15-19.83a6.4,6.4,0,0,1,6.39,6.4V123.7A6.39,6.39,0,0,1,133.55,130.1Z"/></svg>