<svg id="Layer_1" data-name="Layer 1" xmlns="http://www.w3.org/2000/svg" width="200" height="200" viewBox="0 0 200 200"><defs><style>.cls-1{fill:none;}</style></defs><title>ingen</title><path class="cls-1" d="M105,158.84a65.42,65.42,0,1,1,65.42-65.42A65.5,65.5,0,0,1,105,158.84Zm0-122.47a57,57,0,1,0,57,57.05A57.11,57.11,0,0,0,105,36.37Z"/><path class="cls-1" d="M89.59,133.48a4.19,4.19,0,0,1-4.19-4.19V57.55a4.19,4.19,0,1,1,8.37,0v71.74A4.19,4.19,0,0,1,89.59,133.48Z"/><path class="cls-1" d="M95.67,86.43H83.51c-3.3,0-8.84-1.38-8.84-10.66V57.55a4.19,4.19,0,1,1,8.37,0V75.77a9.32,9.32,0,0,0,.2,2.28H95.93a8.81,8.81,0,0,0,.2-2.28V57.55a4.19,4.19,0,0,1,8.38,0V75.77C104.51,85.05,99,86.43,95.67,86.43Z"/><path class="cls-1" d="M126,133.48a4.19,4.19,0,0,1-4.18-4.19v-32a4.19,4.19,0,0,1-6.06-3.75V67c0-9,3.45-13.62,10.24-13.62a4.19,4.19,0,0,1,4.19,4.19v71.74A4.19,4.19,0,0,1,126,133.48Z"/></svg>