<svg id="Layer_1" data-name="Layer 1" xmlns="http://www.w3.org/2000/svg" width="200" height="200" viewBox="0 0 200 200"><defs><style>.cls-1{fill:#159b0a;}</style></defs><title>vegan</title><path class="cls-1" d="M100,130.84a65.42,65.42,0,1,1,65.42-65.42A65.5,65.5,0,0,1,100,130.84ZM100,8.37a57,57,0,1,0,57,57.05A57.11,57.11,0,0,0,100,8.37Z"/><path class="cls-1" d="M84.59,105.48a4.19,4.19,0,0,1-4.19-4.19V29.55a4.19,4.19,0,1,1,8.37,0v71.74A4.19,4.19,0,0,1,84.59,105.48Z"/><path class="cls-1" d="M90.67,58.43H78.51c-3.3,0-8.84-1.38-8.84-10.66V29.55a4.19,4.19,0,1,1,8.37,0V47.77a9.32,9.32,0,0,0,.2,2.28H90.93a8.81,8.81,0,0,0,.2-2.28V29.55a4.19,4.19,0,0,1,8.38,0V47.77C99.51,57.05,94,58.43,90.67,58.43Z"/><path class="cls-1" d="M121,105.48a4.19,4.19,0,0,1-4.18-4.19v-32a4.19,4.19,0,0,1-6.06-3.75V39c0-9,3.45-13.62,10.24-13.62a4.19,4.19,0,0,1,4.19,4.19v71.74A4.19,4.19,0,0,1,121,105.48Z"/><path class="cls-1" d="M46.49,150.68h3.25a1.38,1.38,0,0,1,.86.26,1.55,1.55,0,0,1,.49.66l5.1,13.23c.17.43.34.9.49,1.42s.3,1.05.44,1.62a18.53,18.53,0,0,1,.86-3l5.08-13.23a1.56,1.56,0,0,1,.48-.63,1.31,1.31,0,0,1,.86-.29h3.25l-8.76,21.69H55.25Z"/><path class="cls-1" d="M84.35,150.68v3.21H74.73v6h7.58V163H74.73v6.14h9.62v3.22H70.67V150.68Z"/><path class="cls-1" d="M98.55,169.4a9.17,9.17,0,0,0,4.31-.93v-3.94h-2.72a.82.82,0,0,1-.61-.22.7.7,0,0,1-.23-.53V161.5h7.22v8.77a12.77,12.77,0,0,1-1.72,1,11.1,11.1,0,0,1-1.91.72,13.76,13.76,0,0,1-2.16.43,19.45,19.45,0,0,1-2.49.14,11.34,11.34,0,0,1-4.37-.82A10.26,10.26,0,0,1,88.15,166a11.75,11.75,0,0,1-.82-4.45,12.28,12.28,0,0,1,.8-4.49,9.83,9.83,0,0,1,5.8-5.79,12.84,12.84,0,0,1,4.68-.81,12.3,12.3,0,0,1,4.6.79,10.75,10.75,0,0,1,3.29,2.05l-1.17,1.83a1,1,0,0,1-.91.55,1.38,1.38,0,0,1-.74-.24l-1-.57a6.64,6.64,0,0,0-1.11-.49,9.1,9.1,0,0,0-1.37-.35,10,10,0,0,0-1.74-.13,7.46,7.46,0,0,0-2.9.54A6.11,6.11,0,0,0,93.36,156,7,7,0,0,0,92,158.38a9.47,9.47,0,0,0-.49,3.15,9.88,9.88,0,0,0,.52,3.34,7,7,0,0,0,1.47,2.46,6.28,6.28,0,0,0,2.25,1.54A7.38,7.38,0,0,0,98.55,169.4Z"/><path class="cls-1" d="M130.1,172.37H127a1.36,1.36,0,0,1-.87-.26,1.48,1.48,0,0,1-.48-.65L124,167h-9l-1.62,4.43a1.45,1.45,0,0,1-.47.63,1.33,1.33,0,0,1-.86.28h-3.14l8.52-21.69h4.13Zm-14-8.19H123L120.33,157c-.12-.32-.25-.7-.4-1.13s-.28-.91-.42-1.42c-.14.51-.28,1-.42,1.42s-.26.83-.39,1.16Z"/><path class="cls-1" d="M135.65,150.71a.85.85,0,0,1,.32.09,1.16,1.16,0,0,1,.28.19,3.77,3.77,0,0,1,.3.34l11.38,14.5c0-.35-.07-.69-.08-1s0-.65,0-.94V150.68h3.55v21.69H149.3a1.87,1.87,0,0,1-.8-.15,1.76,1.76,0,0,1-.61-.54l-11.34-14.44c0,.32,0,.64.06.95s0,.6,0,.86v13.32h-3.56V150.68h2.12A2.81,2.81,0,0,1,135.65,150.71Z"/></svg>