<svg id="Layer_1" data-name="Layer 1" xmlns="http://www.w3.org/2000/svg" width="200" height="200" viewBox="0 0 200 200"><defs><style>.cls-1{fill:#005acf;}</style></defs><title>vegetar</title><path class="cls-1" d="M100,130.84a65.42,65.42,0,1,1,65.42-65.42A65.5,65.5,0,0,1,100,130.84ZM100,8.37a57,57,0,1,0,57,57.05A57.11,57.11,0,0,0,100,8.37Z"/><path class="cls-1" d="M84.59,105.48a4.19,4.19,0,0,1-4.19-4.19V29.55a4.19,4.19,0,1,1,8.37,0v71.74A4.19,4.19,0,0,1,84.59,105.48Z"/><path class="cls-1" d="M90.67,58.43H78.51c-3.3,0-8.84-1.38-8.84-10.66V29.55a4.19,4.19,0,1,1,8.37,0V47.77a9.32,9.32,0,0,0,.2,2.28H90.93a8.81,8.81,0,0,0,.2-2.28V29.55a4.19,4.19,0,0,1,8.38,0V47.77C99.51,57.05,94,58.43,90.67,58.43Z"/><path class="cls-1" d="M121,105.48a4.19,4.19,0,0,1-4.18-4.19v-32a4.19,4.19,0,0,1-6.06-3.75V39c0-9,3.45-13.62,10.24-13.62a4.19,4.19,0,0,1,4.19,4.19v71.74A4.19,4.19,0,0,1,121,105.48Z"/><path class="cls-1" d="M3,150.68H6.27a1.38,1.38,0,0,1,.86.26,1.55,1.55,0,0,1,.49.66l5.1,13.23c.17.43.34.9.49,1.42s.3,1.05.44,1.62a18.53,18.53,0,0,1,.86-3l5.08-13.23a1.56,1.56,0,0,1,.48-.63,1.31,1.31,0,0,1,.86-.29h3.25l-8.76,21.69H11.78Z"/><path class="cls-1" d="M40.88,150.68v3.21H31.26v6h7.58V163H31.26v6.14h9.62v3.22H27.2V150.68Z"/><path class="cls-1" d="M55.08,169.4a10.39,10.39,0,0,0,2.38-.24,10.54,10.54,0,0,0,1.93-.69v-3.94H56.67a.82.82,0,0,1-.61-.22.7.7,0,0,1-.23-.53V161.5h7.22v8.77a12.77,12.77,0,0,1-1.72,1,11.1,11.1,0,0,1-1.91.72,13.76,13.76,0,0,1-2.16.43,19.45,19.45,0,0,1-2.49.14,11.34,11.34,0,0,1-4.37-.82A10.26,10.26,0,0,1,44.68,166a11.75,11.75,0,0,1-.82-4.45,12.28,12.28,0,0,1,.8-4.49,9.9,9.9,0,0,1,5.8-5.79,12.84,12.84,0,0,1,4.68-.81,12.3,12.3,0,0,1,4.6.79A10.63,10.63,0,0,1,63,153.28l-1.17,1.83a1,1,0,0,1-.91.55,1.38,1.38,0,0,1-.74-.24l-1-.57a6.64,6.64,0,0,0-1.11-.49,9.1,9.1,0,0,0-1.37-.35,10,10,0,0,0-1.74-.13,7.46,7.46,0,0,0-2.9.54A6.11,6.11,0,0,0,49.89,156a7,7,0,0,0-1.41,2.42,9.47,9.47,0,0,0-.49,3.15,9.88,9.88,0,0,0,.52,3.34A7,7,0,0,0,50,167.33a6.28,6.28,0,0,0,2.25,1.54A7.38,7.38,0,0,0,55.08,169.4Z"/><path class="cls-1" d="M81.24,150.68v3.21H71.63v6H79.2V163H71.63v6.14h9.61v3.22H67.56V150.68Z"/><path class="cls-1" d="M100.77,150.68V154H94.25v18.37h-4V154H83.66v-3.32Z"/><path class="cls-1" d="M121,172.37h-3.12a1.36,1.36,0,0,1-.87-.26,1.48,1.48,0,0,1-.48-.65L114.86,167h-9l-1.62,4.43a1.45,1.45,0,0,1-.47.63,1.33,1.33,0,0,1-.86.28H99.78l8.52-21.69h4.13Zm-14-8.19h6.91L111.18,157c-.12-.32-.25-.7-.4-1.13s-.28-.91-.42-1.42c-.14.51-.28,1-.42,1.42s-.26.83-.39,1.16Z"/><path class="cls-1" d="M128.1,163.9v8.47h-4V150.68h6.61a14,14,0,0,1,3.8.46,7.35,7.35,0,0,1,2.6,1.28,4.93,4.93,0,0,1,1.48,2,6.76,6.76,0,0,1,.15,4.59,6,6,0,0,1-.92,1.77,6.48,6.48,0,0,1-1.5,1.4,8,8,0,0,1-2,1,4,4,0,0,1,1.32,1.24l5.43,8h-3.63a1.75,1.75,0,0,1-.89-.21,1.77,1.77,0,0,1-.62-.6l-4.56-6.94a1.59,1.59,0,0,0-.57-.56,1.93,1.93,0,0,0-.9-.16Zm0-2.9h2.52a6.29,6.29,0,0,0,2-.28,3.75,3.75,0,0,0,1.39-.79,3.07,3.07,0,0,0,.82-1.19,4.15,4.15,0,0,0,.27-1.52,3.06,3.06,0,0,0-1.09-2.53,5.18,5.18,0,0,0-3.32-.89H128.1Z"/><path class="cls-1" d="M148.88,172.37h-4V150.68h4Z"/><path class="cls-1" d="M173.57,172.37h-3.12a1.36,1.36,0,0,1-.87-.26,1.48,1.48,0,0,1-.48-.65L167.48,167h-9l-1.62,4.43a1.45,1.45,0,0,1-.47.63,1.31,1.31,0,0,1-.86.28H152.4l8.52-21.69h4.13Zm-14-8.19h6.91L163.8,157c-.12-.32-.25-.7-.39-1.13s-.29-.91-.43-1.42c-.14.51-.28,1-.41,1.42s-.27.83-.4,1.16Z"/><path class="cls-1" d="M179.12,150.71a.85.85,0,0,1,.32.09,1.16,1.16,0,0,1,.28.19,3.77,3.77,0,0,1,.3.34l11.38,14.5c0-.35-.07-.69-.08-1s0-.65,0-.94V150.68h3.55v21.69h-2.08a1.87,1.87,0,0,1-.8-.15,1.76,1.76,0,0,1-.61-.54L180,157.24c0,.32,0,.64.06.95s0,.6,0,.86v13.32h-3.56V150.68h2.12A2.81,2.81,0,0,1,179.12,150.71Z"/></svg>