<svg id="Layer_1" data-name="Layer 1" xmlns="http://www.w3.org/2000/svg" width="200" height="200" viewBox="0 0 200 200"><defs><style>.cls-1{fill:#fff;}</style></defs><title>information</title><path class="cls-1" d="M118.63,149.63A68.32,68.32,0,0,1,70.33,33a68.31,68.31,0,0,1,96.61,96.61A67.92,67.92,0,0,1,118.63,149.63Zm0-125.5A57.19,57.19,0,0,0,78.2,121.75a57.19,57.19,0,1,0,40.43-97.62Z"/><path class="cls-1" d="M34.54,186.85a20.85,20.85,0,0,1-14.86-6.13l-.46-.46a21,21,0,0,1,0-29.7L48,121.8a5.56,5.56,0,1,1,7.87,7.87L27.1,158.43a9.92,9.92,0,0,0,0,14l.47.47a10.2,10.2,0,0,0,14,0l28.75-28.77A5.56,5.56,0,0,1,78.14,152L49.39,180.72A20.87,20.87,0,0,1,34.54,186.85Z"/><path class="cls-1" d="M104.34,86.47c-17.72,0-19.1-12.58-19.1-16.43V54.26a5.57,5.57,0,0,1,11.13,0V70c0,2,0,5.31,8,5.31s8-3.33,8-5.31V54.26a5.56,5.56,0,0,1,11.12,0V70C123.44,78,118.43,86.47,104.34,86.47Z"/><path class="cls-1" d="M104.34,115.61a5.56,5.56,0,0,1-5.56-5.56V54.26a5.57,5.57,0,0,1,11.13,0v55.79A5.56,5.56,0,0,1,104.34,115.61Z"/><path class="cls-1" d="M144.78,115.61a5.56,5.56,0,0,1-5.56-5.56V85.72a5.57,5.57,0,0,1-8.36-4.81V63.55c0-7,5.72-14.85,13.92-14.85a5.56,5.56,0,0,1,5.57,5.56v55.79A5.56,5.56,0,0,1,144.78,115.61Z"/></svg>
