<svg id="Layer_2" data-name="Layer 2" xmlns="http://www.w3.org/2000/svg" width="100" height="100" viewBox="0 0 100 100"><defs><style>.cls-1{fill:#fff;}</style></defs><title>a_poco-logo-symbol-white</title><path class="cls-1" d="M61.27,67.58c-.46,0-1,.31-1-.14,0-1.57,1.68-3.29,3.88-5.38.59-.56,1.14-1.09,1.44-1.45l.39-.45a18.07,18.07,0,0,0,5-11.41c.25-7.21-2.63-16.68-8.45-20-3.42-2-8.69-2.12-12.51-1.91a49.73,49.73,0,0,0-11.53,2c-5,1.66-8.49,5.13-12.12,12-3.44,6.47-1.19,12.89.16,16.73l.36,1c.57,1.71,2.18,3.49,3.6,5.06s2.5,2.75,2.5,3.83a.82.82,0,0,1-.82.82h0a.83.83,0,0,1-.83-.82c0-.44-1.25-1.81-2.07-2.72-1.53-1.69-3.27-3.6-3.95-5.65-.1-.31-.22-.65-.35-1C23.68,54.23,21.18,47.12,25,40S32.6,29.05,38,27.24c4.26-1.42,18.19-4,25.39.07,3.12,1.79,5.65,5.13,7.33,9.67a32.54,32.54,0,0,1,1.94,11.83,19.62,19.62,0,0,1-5.43,12.44l-.36.42c-.36.43-.92,1-1.57,1.59C64.07,64.45,62,66.45,62,67.44,62,67.89,61.73,67.58,61.27,67.58Z"/><path class="cls-1" d="M32.23,68.6a1.18,1.18,0,0,1-1.17-1.16,13.83,13.83,0,0,0-2-2.49c-1.56-1.72-3.32-3.66-4-5.77-.11-.31-.22-.65-.35-1-1.36-3.87-3.89-11.08,0-18.33s7.74-11.08,13.25-12.92c4.3-1.43,18.37-4.07,25.66.1,3.2,1.82,5.78,5.23,7.48,9.85a32.57,32.57,0,0,1,2,12,20,20,0,0,1-5.51,12.65l-.36.42a20.37,20.37,0,0,1-1.56,1.58c-1.09,1-3.29,3.13-3.29,4a.6.6,0,0,1-.2.5.58.58,0,0,1-.54,0,1.32,1.32,0,0,0-.66,0,.84.84,0,0,1-.74-.07.55.55,0,0,1-.2-.46c0-1.71,1.73-3.48,4-5.63.55-.52,1.12-1.07,1.41-1.42l.32-.37.07-.08c1.42-1.63,4.74-5.44,4.94-11.2C71,41.62,68.13,32.3,62.43,29,59.08,27.13,53.87,27,50.1,27.18a48.9,48.9,0,0,0-11.44,2c-4.89,1.63-8.35,5-11.93,11.8-3.37,6.34-1.15,12.67.18,16.46.13.38.26.72.36,1,.55,1.65,2.14,3.4,3.53,4.94s2.59,2.85,2.59,4.06A1.17,1.17,0,0,1,32.23,68.6Zm20.4-43.17a52.47,52.47,0,0,0-14.5,2.14C32.8,29.34,29.07,33,25.27,40.16c-3.72,7-1.25,14,.08,17.78.13.37.25.71.35,1,.66,2,2.37,3.86,3.87,5.53s2.16,2.46,2.17,2.94a.49.49,0,0,0,.49.49.48.48,0,0,0,.48-.48c0-1-1-2.06-2.41-3.61s-3.08-3.39-3.67-5.18l-.36-1c-1.37-3.89-3.65-10.39-.14-17,3.68-6.92,7.24-10.44,12.31-12.13a49.93,49.93,0,0,1,11.62-2c3.87-.21,9.21-.05,12.7,1.94,5.94,3.39,8.87,13,8.62,20.32-.21,6-3.64,9.93-5.11,11.62l-.07.08-.31.36a20.15,20.15,0,0,1-1.47,1.47c-2.08,2-3.69,3.62-3.77,5l.13,0a2.28,2.28,0,0,1,.86,0c.19-1.1,1.74-2.65,3.46-4.28a21.53,21.53,0,0,0,1.54-1.56L67,61A19.3,19.3,0,0,0,72.35,48.8a32,32,0,0,0-1.92-11.7c-1.65-4.47-4.13-7.75-7.18-9.5C60.43,26,56.55,25.43,52.63,25.43Z"/><path class="cls-1" d="M38.23,55.49a7.4,7.4,0,1,1,7.4-7.4A7.41,7.41,0,0,1,38.23,55.49Zm0-13.14A5.74,5.74,0,1,0,44,48.09,5.75,5.75,0,0,0,38.23,42.35Z"/><path class="cls-1" d="M38.23,55.83A7.74,7.74,0,1,1,46,48.09,7.74,7.74,0,0,1,38.23,55.83Zm0-14.79a7.06,7.06,0,1,0,7.06,7.05A7.05,7.05,0,0,0,38.23,41Zm0,13.13a6.08,6.08,0,1,1,6.08-6.08A6.08,6.08,0,0,1,38.23,54.17Zm0-11.48a5.41,5.41,0,1,0,5.41,5.4A5.42,5.42,0,0,0,38.23,42.69Z"/><path class="cls-1" d="M57.32,55.49a7.4,7.4,0,1,1,7.4-7.4A7.41,7.41,0,0,1,57.32,55.49Zm0-13.14a5.74,5.74,0,1,0,5.74,5.74A5.75,5.75,0,0,0,57.32,42.35Z"/><path class="cls-1" d="M57.32,55.83a7.74,7.74,0,1,1,7.74-7.74A7.74,7.74,0,0,1,57.32,55.83Zm0-14.79a7.06,7.06,0,1,0,7.06,7.05A7.05,7.05,0,0,0,57.32,41Zm0,13.13a6.08,6.08,0,1,1,6.08-6.08A6.08,6.08,0,0,1,57.32,54.17Zm0-11.48a5.41,5.41,0,1,0,5.4,5.4A5.41,5.41,0,0,0,57.32,42.69Z"/><path class="cls-1" d="M45.66,62.64h-.11c-1.06-.09-1.7-1.15-2.08-1.93-.51-1-.43-2.52,1.35-3.56l.87-.47c.71-.36.87-.45,1.07-1a.82.82,0,0,1,.83-.53.84.84,0,0,1,.75.64c.09.23.9.65,1.29.86a5.74,5.74,0,0,1,1.24.77,2.92,2.92,0,0,1,.59,2.62,2.84,2.84,0,0,1-1.69,2.24,2.48,2.48,0,0,1-2.5-.43A2.82,2.82,0,0,1,45.66,62.64Zm0-1.65Zm2-3.58a4.37,4.37,0,0,1-1.15.74l-.8.43c-1.07.63-.79,1.21-.7,1.4.39.79.64,1,.71,1a4.34,4.34,0,0,0,1.07-.82.85.85,0,0,1,.68-.25.82.82,0,0,1,.61.39,1,1,0,0,0,1.18.48c.37-.14.53-.62.59-.82a1.87,1.87,0,0,0,0-1.27,5.17,5.17,0,0,0-.89-.53A8.91,8.91,0,0,1,47.6,57.41Z"/><path class="cls-1" d="M45.66,63h-.13c-1.24-.11-1.94-1.26-2.37-2.12a3,3,0,0,1,1.49-4c.34-.2.63-.35.88-.48.71-.37.77-.4.91-.78a1.17,1.17,0,0,1,1.17-.74,1.18,1.18,0,0,1,1.06.9s.27.19,1.12.64a6.26,6.26,0,0,1,1.31.82,3.29,3.29,0,0,1,.69,2.94,3.17,3.17,0,0,1-1.9,2.49,2.82,2.82,0,0,1-2.62-.32A2.84,2.84,0,0,1,45.66,63Zm1.87-7.44a.48.48,0,0,0-.45.31c-.25.62-.52.76-1.23,1.13l-.86.47c-2,1.15-1.43,2.67-1.22,3.11.35.71.92,1.67,1.81,1.74h.08a2.52,2.52,0,0,0,1.4-.66l.21-.17.21.17a2.15,2.15,0,0,0,2.18.37,2.47,2.47,0,0,0,1.46-2,2.63,2.63,0,0,0-.47-2.31A6.12,6.12,0,0,0,49.49,57c-1-.53-1.37-.79-1.47-1a.5.5,0,0,0-.46-.42Zm-1.89,5.81-.13-.07a2.45,2.45,0,0,1-.86-1.15c-.34-.69,0-1.32.83-1.84.31-.18.58-.32.82-.44a4.36,4.36,0,0,0,1.07-.68l.21-.2.23.17a8.21,8.21,0,0,0,1.21.72,6.12,6.12,0,0,1,1,.57,2.1,2.1,0,0,1,.14,1.62,1.54,1.54,0,0,1-.81,1.05,1.32,1.32,0,0,1-1.57-.62.51.51,0,0,0-.36-.23.53.53,0,0,0-.41.14,4.44,4.44,0,0,1-1.19.91Zm2-3.51a5.43,5.43,0,0,1-1,.61l-.79.43c-.8.47-.64.79-.56.95a3.31,3.31,0,0,0,.45.74,4.42,4.42,0,0,0,.77-.65,1.18,1.18,0,0,1,1.83.2.67.67,0,0,0,.77.34.91.91,0,0,0,.38-.59,1.71,1.71,0,0,0,0-1c-.07-.05-.49-.27-.76-.42A11.11,11.11,0,0,1,47.62,57.84Z"/><polygon class="cls-1" points="56.98 34.94 63.26 37.41 64.1 35.54 57.55 32.43 56.98 34.94"/><path class="cls-1" d="M63.26,38.1a.56.56,0,0,1-.25-.05l-6.28-2.48a.7.7,0,0,1-.42-.79l.57-2.5a.7.7,0,0,1,.37-.47.68.68,0,0,1,.59,0l6.56,3.11a.68.68,0,0,1,.33.9l-.84,1.88A.68.68,0,0,1,63.26,38.1Zm-5.48-3.59,5.13,2,.29-.66L58,33.42Z"/><polygon class="cls-1" points="39.13 36.23 32.84 38.71 32.01 36.84 38.56 33.73 39.13 36.23"/><path class="cls-1" d="M32.85,39.4a.67.67,0,0,1-.63-.41l-.84-1.87a.68.68,0,0,1,.33-.9l6.56-3.11a.68.68,0,0,1,1,.47l.57,2.5a.7.7,0,0,1-.42.79L33.1,39.35A.79.79,0,0,1,32.85,39.4Zm.06-2.23.29.66,5.13-2-.25-1.09Z"/><path class="cls-1" d="M31.6,74a.84.84,0,0,1-.92-.66q-.54-2.67-1.09-5.33a.83.83,0,0,1,.14-.65.92.92,0,0,1,.6-.34c.61-.33,15.67-1.61,18.09-1.31a124.63,124.63,0,0,1,14.95,1.17.84.84,0,0,1,.72.92l-.57,4.43a.83.83,0,0,1-.93.72h0a75.32,75.32,0,0,0-12-.37c-6.18.3-12.87.77-14.78,1-1.67.13-4.16.46-4.18.47Zm-.13-5.47c.24,1.24.48,2.49.71,3.73.89-.12,2.36-.29,3.48-.38,1.92-.19,8.64-.67,14.83-1a75.51,75.51,0,0,1,11.45.29l.33-2.82a126.12,126.12,0,0,0-13.87-1A139.06,139.06,0,0,0,31.47,68.51Z"/><path class="cls-1" d="M31.66,74.32h0a1.18,1.18,0,0,1-1.29-.93l-1.11-5.33a1.13,1.13,0,0,1,.2-.91,1.3,1.3,0,0,1,.84-.49l.66-.09a124.71,124.71,0,0,1,17.48-1.22,128.72,128.72,0,0,1,15,1.17,1.2,1.2,0,0,1,1,1.31c-.2,1.47-.39,3-.58,4.42a1.19,1.19,0,0,1-1.32,1,74.74,74.74,0,0,0-11.95-.37c-6.14.29-12.85.77-14.77,1-1.48.12-3.6.4-4.07.46ZM48.42,66A121.94,121.94,0,0,0,31,67.24l-.67.09a.59.59,0,0,0-.35.21.47.47,0,0,0-.08.38L31,73.26a.49.49,0,0,0,.54.39l.11,0c.47-.07,2.61-.34,4.1-.46,1.92-.19,8.64-.66,14.79-1a73.79,73.79,0,0,1,12,.38.5.5,0,0,0,.57-.42c.19-1.48.37-3,.56-4.43a.5.5,0,0,0-.43-.55A125.74,125.74,0,0,0,48.42,66ZM31.9,72.61c-.28-1.46-.56-2.92-.85-4.38l.37,0a137,137,0,0,1,17-1.17,126.61,126.61,0,0,1,13.91,1l.34,0c-.14,1.16-.27,2.32-.41,3.48l-.34,0a76.12,76.12,0,0,0-11.41-.29c-6.15.29-12.89.77-14.81,1-1.11.08-2.58.26-3.47.37Zm0-3.81c.2,1,.39,2,.58,3.06.9-.12,2.18-.26,3.17-.34,1.93-.19,8.67-.67,14.84-1a77.4,77.4,0,0,1,11.16.26c.09-.72.17-1.44.25-2.16a126.86,126.86,0,0,0-13.48-1A135.7,135.7,0,0,0,31.88,68.8Z"/><path class="cls-1" d="M37.71,73.23a.85.85,0,0,1-.88-.71q-.4-2.64-.83-5.3a.83.83,0,0,1,.74-.94.86.86,0,0,1,1,.69q.39,2.66.76,5.31a.84.84,0,0,1-.71.94Z"/><path class="cls-1" d="M37.74,73.57a1.19,1.19,0,0,1-1.25-1c-.27-1.76-.55-3.53-.84-5.29a1.19,1.19,0,0,1,1-1.34,1.21,1.21,0,0,1,1.39,1c.26,1.77.5,3.55.75,5.32a1.16,1.16,0,0,1-.23.86,1.19,1.19,0,0,1-.77.46Zm-.91-7h0a.49.49,0,0,0-.43.56l.81,5.3a.5.5,0,0,0,.52.42l0,.34c0-.12,0-.23,0-.35a.43.43,0,0,0,.32-.19.47.47,0,0,0,.1-.36q-.37-2.65-.77-5.31A.51.51,0,0,0,36.83,66.61Z"/><path class="cls-1" d="M44.2,72.78a.83.83,0,0,1-.84-.71q-.42-2.67-.87-5.36a.83.83,0,0,1,.73-.95.86.86,0,0,1,1,.7q.42,2.69.8,5.37a.83.83,0,0,1-.7.94Z"/><path class="cls-1" d="M44.21,73.12a1.18,1.18,0,0,1-1.19-1q-.44-2.68-.88-5.36a1.09,1.09,0,0,1,.21-.87,1.28,1.28,0,0,1,1.73-.26,1.16,1.16,0,0,1,.49.77q.41,2.69.79,5.37a1.18,1.18,0,0,1-.23.87,1.14,1.14,0,0,1-.77.45Zm-.87-7h-.07a.53.53,0,0,0-.34.19.49.49,0,0,0-.09.37c.29,1.78.58,3.57.85,5.36a.5.5,0,0,0,.5.42h.06a.52.52,0,0,0,.33-.2.46.46,0,0,0,.09-.36q-.39-2.68-.81-5.37A.52.52,0,0,0,43.34,66.09Z"/><path class="cls-1" d="M50.72,71.79a.84.84,0,0,1-.81-.68c-.26-1.46-.54-2.91-.82-4.37a.82.82,0,0,1,.7-1,.87.87,0,0,1,1,.67q.41,2.19.78,4.38a.84.84,0,0,1-.69,1Z"/><path class="cls-1" d="M50.71,72.13a1.2,1.2,0,0,1-1.14-1c-.27-1.46-.55-2.91-.83-4.37a1.09,1.09,0,0,1,.19-.87,1.2,1.2,0,0,1,.8-.48,1.26,1.26,0,0,1,.92.19,1.18,1.18,0,0,1,.51.76c.26,1.45.51,2.91.76,4.37a1.13,1.13,0,0,1-.21.87,1.14,1.14,0,0,1-.77.47A.93.93,0,0,1,50.71,72.13Zm-.75-6a.41.41,0,0,0-.11,0,.59.59,0,0,0-.33.2.45.45,0,0,0-.08.37c.28,1.46.55,2.91.81,4.37a.51.51,0,0,0,.58.4.52.52,0,0,0,.32-.2.49.49,0,0,0,.09-.37c-.26-1.46-.52-2.91-.79-4.37a.49.49,0,0,0-.21-.32A.57.57,0,0,0,50,66.11Z"/><path class="cls-1" d="M58.13,72.52a.83.83,0,0,1-.76-.74c-.16-1.48-.32-3-.5-4.44a.82.82,0,0,1,.77-.9.86.86,0,0,1,1,.74q.24,2.22.45,4.44a.83.83,0,0,1-.76.9A.43.43,0,0,1,58.13,72.52Z"/><path class="cls-1" d="M58.11,72.86a1.2,1.2,0,0,1-1.09-1c-.16-1.47-.33-3-.5-4.43a1.17,1.17,0,0,1,1.09-1.28A1.24,1.24,0,0,1,59,67.15c.15,1.48.29,3,.43,4.44a1.18,1.18,0,0,1-1.07,1.27A1.46,1.46,0,0,1,58.11,72.86Zm-.34-6.09h-.09a.52.52,0,0,0-.34.18.44.44,0,0,0-.11.36c.17,1.48.33,3,.48,4.43a.51.51,0,0,0,.55.44.48.48,0,0,0,.44-.53q-.21-2.22-.45-4.44A.52.52,0,0,0,57.77,66.77Z"/><path class="cls-1" d="M31.58,84.08a.87.87,0,0,1-.77-.85c.12-1.75.26-3.5.4-5.24a.8.8,0,0,1,.3-.61.88.88,0,0,1,.66-.18s6.34.81,8.55.88c.91,0,2.67,0,4.7-.08,2.84-.15,6-.48,8.38-.64,4-.27,7.72-.82,7.72-.82a.84.84,0,0,1,.95.7l.84,5.4a.81.81,0,0,1-.19.64.91.91,0,0,1-.63.31c-4.68.43-11.55,1.06-16.07,1.22a96.83,96.83,0,0,1-14.83-.73ZM32.89,79l-.3,3.57a91.06,91.06,0,0,0,13.74.61c4.21-.15,10.48-.68,15.1-1.13l-.51-3.72c-1.33.18-4.08.51-7,.71-2.32.16-5.54.49-8.39.64-2.1.11-3.91.14-4.9.08C38.91,79.65,34.76,79.25,32.89,79Z"/><path class="cls-1" d="M31.53,84.41a1.23,1.23,0,0,1-1.09-1.2L30.86,78a1.14,1.14,0,0,1,.43-.84,1.2,1.2,0,0,1,.93-.25s6.32.81,8.52.87c.91.06,2.74,0,4.67-.08,2.82-.15,6-.47,8.37-.64,4-.27,7.7-.81,7.69-.81a1.18,1.18,0,0,1,1.34,1c.29,1.8.57,3.6.86,5.4a1.14,1.14,0,0,1-.27.91,1.25,1.25,0,0,1-.88.44C57.83,84.36,51,85,46.44,85.15a96.81,96.81,0,0,1-14.89-.73Zm22.29-6.72c-2.35.17-5.54.5-8.38.64-1.95.11-3.8.14-4.74.08-2.22-.06-8.58-.82-8.58-.87a.5.5,0,0,0-.39.1.5.5,0,0,0-.18.36c-.13,1.75-.26,3.5-.38,5.26a.5.5,0,0,0,.46.48h0a94,94,0,0,0,14.76.73c4.51-.16,11.38-.79,16.07-1.21a.6.6,0,0,0,.37-.19.49.49,0,0,0,.11-.38c-.27-1.8-.55-3.6-.82-5.4a.49.49,0,0,0-.56-.41S57.87,77.43,53.82,77.69ZM32.21,82.83c.11-1.41.24-2.83.36-4.24l.36,0c1.87.28,6,.67,7.71.75,1,.06,2.75,0,4.8-.08,2.76-.13,6.09-.47,8.45-.64,2.92-.2,5.66-.53,7-.71l.35,0c.2,1.47.41,3,.62,4.42l-.38,0c-4.66.45-11,1-15.11,1.13a88.92,88.92,0,0,1-13.8-.62Zm1-3.47c-.08,1-.16,1.92-.23,2.88a89.93,89.93,0,0,0,13.33.58c4-.15,10.1-.65,14.72-1.1-.14-1-.27-2-.41-3-1.43.19-4,.48-6.68.66-2.36.18-5.7.51-8.4.65-2.14.11-3.95.14-4.94.08C39,80,35.21,79.64,33.21,79.36Z"/><path class="cls-1" d="M37,83.16a.86.86,0,0,1-.8-.87c.06-1,.11-2,.17-3a.85.85,0,0,1,1.7.09l-.12,3a.83.83,0,0,1-.91.78Z"/><path class="cls-1" d="M37,83.5a1.2,1.2,0,0,1-1.12-1.24c0-1,.11-2,.17-3a1.19,1.19,0,0,1,1.26-1.1h0a1.19,1.19,0,0,1,1.1,1.21c0,1-.07,2-.11,3a1.12,1.12,0,0,1-.39.81,1.24,1.24,0,0,1-.89.3Zm.29-4.61h0a.49.49,0,0,0-.52.46c-.06,1-.11,2-.16,3a.5.5,0,0,0,.47.51l0,.34c0-.11,0-.23,0-.34a.5.5,0,0,0,.56-.46l.12-3A.5.5,0,0,0,37.26,78.89Z"/><path class="cls-1" d="M43.76,83.55a.86.86,0,0,1-.85-.75c-.08-.8-.15-1.6-.23-2.4a.84.84,0,0,1,.77-.9.85.85,0,0,1,.94.74q.12,1.2.27,2.4a.85.85,0,0,1-.79.91Z"/><path class="cls-1" d="M43.75,83.89a1.2,1.2,0,0,1-1.19-1.06c-.08-.8-.16-1.6-.23-2.4a1.18,1.18,0,0,1,1.09-1.27,1.2,1.2,0,0,1,.87.26,1.11,1.11,0,0,1,.44.78c.09.8.19,1.6.28,2.4a1.09,1.09,0,0,1-.26.86,1.26,1.26,0,0,1-.84.42Zm-.2-4.06h-.06a.49.49,0,0,0-.46.53l.24,2.4a.52.52,0,0,0,.5.44h.06a.52.52,0,0,0,.36-.18.52.52,0,0,0,.11-.36c-.09-.8-.18-1.6-.26-2.4a.51.51,0,0,0-.19-.33A.52.52,0,0,0,43.55,79.83Z"/><path class="cls-1" d="M50.47,83.17h-.11a.83.83,0,0,1-.79-.9c.11-1,.21-2.06.31-3.08a.84.84,0,0,1,.92-.75.83.83,0,0,1,.77.89c-.08,1-.17,2.06-.26,3.08A.86.86,0,0,1,50.47,83.17Z"/><path class="cls-1" d="M50.48,83.51h-.15a1.19,1.19,0,0,1-1.12-1.27c.12-1,.22-2.06.33-3.09a1.15,1.15,0,0,1,.42-.78,1.2,1.2,0,0,1,2,1c-.09,1-.17,2.06-.26,3.09A1.2,1.2,0,0,1,50.48,83.51Zm.22-4.74a.56.56,0,0,0-.3.12.47.47,0,0,0-.17.33c-.1,1-.2,2-.31,3.08a.49.49,0,0,0,.47.53h.06a.51.51,0,0,0,.5-.44q.15-1.55.27-3.09a.5.5,0,0,0-.45-.53Z"/><path class="cls-1" d="M56.34,82.78H56.2a.83.83,0,0,1-.8-.89c.1-1.1.2-2.19.28-3.29a.85.85,0,0,1,.91-.76.83.83,0,0,1,.78.87c-.07,1.1-.15,2.2-.23,3.29A.85.85,0,0,1,56.34,82.78Z"/><path class="cls-1" d="M56.37,83.12h-.19A1.17,1.17,0,0,1,55,81.87c.11-1.09.21-2.19.3-3.28a1.18,1.18,0,0,1,.41-.8,1.22,1.22,0,0,1,.86-.28,1.2,1.2,0,0,1,.81.39,1.13,1.13,0,0,1,.3.84c-.07,1.1-.14,2.2-.22,3.29A1.2,1.2,0,0,1,56.37,83.12Zm.11-4.93a.57.57,0,0,0-.28.11.51.51,0,0,0-.17.34l-.27,3.29a.49.49,0,0,0,.47.52h.08a.51.51,0,0,0,.47-.46c.09-1.09.17-2.19.24-3.29a.48.48,0,0,0-.46-.51Z"/><path class="cls-1" d="M46.79,89.94c-12.53-.25-14.36-6.23-14.4-6.3a.81.81,0,0,1,.6-1,.93.93,0,0,1,1.1.58c0-.09,1.71,4.89,12.7,5.09,11.1-.19,12.55-5.61,12.55-5.53a.9.9,0,0,1,1.07-.62.82.82,0,0,1,.65,1C61,83.22,59.37,89.71,46.79,89.94Z"/><path class="cls-1" d="M46.79,90.28C34,90,32.08,83.8,32,83.73a1.09,1.09,0,0,1,.11-.88,1.18,1.18,0,0,1,.74-.55,1.3,1.3,0,0,1,.95.1,1.18,1.18,0,0,1,.6.7c0-.08,1.78,4.67,12.36,4.85C57.48,87.78,59,82.6,59,82.67a1.19,1.19,0,0,1,.57-.72,1.31,1.31,0,0,1,.93-.14,1.25,1.25,0,0,1,.77.51,1.09,1.09,0,0,1,.15.88C61.37,83.29,59.68,90,46.79,90.28ZM33.3,82.94a.5.5,0,0,0-.21,0,.53.53,0,0,0-.31.23.44.44,0,0,0,0,.37c0,.07,1.8,5.81,14,6,12.27-.22,13.88-6.46,13.91-6.55a.47.47,0,0,0-.38-.58.54.54,0,0,0-.39.06.5.5,0,0,0-.24.3c0-.07-1.51,5.61-12.9,5.79-11.27-.2-13-5.4-13-5.32a.47.47,0,0,0-.25-.3A.6.6,0,0,0,33.3,82.94Z"/><path class="cls-1" d="M76.63,35.35l4.87-4.78a2.15,2.15,0,0,1,3.39.51h0a2.15,2.15,0,0,1-1.53,3.13Z"/><path class="cls-1" d="M20.79,32.28,17.3,28a1.37,1.37,0,0,0-2.31.28h0a1.38,1.38,0,0,0,.71,1.86Z"/><path class="cls-1" d="M47,11h0a1.83,1.83,0,0,1,1.78,2.36l-1.54,5.2-1.93-5.07A1.83,1.83,0,0,1,47,11Z"/></svg>
