<svg id="Layer_2" data-name="Layer 2" xmlns="http://www.w3.org/2000/svg" width="280.19" height="107.16" viewBox="0 0 280.19 107.16"><defs><style>.cls-1{fill:#005acf;}</style></defs><title>a_poco-logo-symbol-blue</title><path class="cls-1" d="M65.39,71.16c-.46,0-1,.31-1-.14,0-1.57,1.68-3.29,3.88-5.38.59-.56,1.14-1.09,1.44-1.45l.39-.44a18.19,18.19,0,0,0,5-11.42c.25-7.21-2.63-16.68-8.45-20-3.42-2-8.69-2.11-12.51-1.9a48.68,48.68,0,0,0-11.53,2c-5,1.66-8.49,5.12-12.12,12-3.44,6.47-1.19,12.89.16,16.73l.36,1c.57,1.71,2.18,3.49,3.6,5.06s2.5,2.75,2.5,3.83a.82.82,0,0,1-.82.82h0a.83.83,0,0,1-.83-.82c0-.44-1.25-1.81-2.07-2.72-1.53-1.69-3.27-3.6-4-5.65-.1-.31-.22-.64-.35-1-1.35-3.82-3.85-10.94-.06-18.06s7.63-10.95,13.06-12.75c4.26-1.42,18.19-4,25.38.06,3.13,1.79,5.66,5.13,7.34,9.67a32.57,32.57,0,0,1,1.94,11.83,19.62,19.62,0,0,1-5.43,12.44l-.36.42c-.36.43-.92,1-1.57,1.59C68.19,68,66.09,70,66.09,71,66.09,71.47,65.85,71.16,65.39,71.16Z"/><path class="cls-1" d="M36.35,72.18A1.18,1.18,0,0,1,35.18,71a13.83,13.83,0,0,0-2-2.49c-1.56-1.72-3.32-3.66-4-5.77l-.35-1c-1.36-3.87-3.89-11.08,0-18.33S36.53,32.34,42,30.5c4.3-1.43,18.37-4.07,25.66.1,3.2,1.82,5.78,5.23,7.48,9.85a32.57,32.57,0,0,1,2,11.95,19.93,19.93,0,0,1-5.51,12.65l-.36.42a20.37,20.37,0,0,1-1.56,1.58c-1.1,1-3.3,3.13-3.3,4a.62.62,0,0,1-.19.5.58.58,0,0,1-.54,0,1.32,1.32,0,0,0-.66,0,.87.87,0,0,1-.74-.06.59.59,0,0,1-.2-.47c0-1.71,1.73-3.48,4-5.63.55-.52,1.12-1.07,1.41-1.42l.32-.37.07-.08c1.42-1.63,4.74-5.44,4.94-11.2.25-7.11-2.57-16.44-8.27-19.7C63.2,30.71,58,30.55,54.22,30.77a48.46,48.46,0,0,0-11.44,1.95c-4.89,1.63-8.35,5-11.93,11.8C27.47,50.86,29.7,57.19,31,61l.36,1c.55,1.65,2.13,3.4,3.53,4.94s2.59,2.85,2.59,4.06A1.16,1.16,0,0,1,36.35,72.18ZM56.75,29a52.48,52.48,0,0,0-14.5,2.13c-5.33,1.77-9.06,5.42-12.86,12.59-3.72,7-1.25,14,.08,17.78.13.37.25.72.35,1,.66,2,2.37,3.86,3.87,5.52s2.16,2.46,2.17,2.94a.49.49,0,0,0,.49.49.48.48,0,0,0,.48-.48c0-1-1-2.06-2.41-3.6s-3.08-3.4-3.67-5.18l-.36-1c-1.37-3.89-3.65-10.39-.14-17,3.68-6.92,7.24-10.44,12.31-12.13a49.93,49.93,0,0,1,11.62-2c3.87-.21,9.21-.05,12.7,1.95,5.93,3.38,8.87,13,8.62,20.31-.21,6-3.64,9.93-5.11,11.62l-.07.08-.31.36a20,20,0,0,1-1.47,1.48c-2.08,2-3.69,3.61-3.77,5l.13,0a2.51,2.51,0,0,1,.86,0c.19-1.1,1.74-2.65,3.46-4.28A21.53,21.53,0,0,0,70.76,65l.37-.42a19.35,19.35,0,0,0,5.34-12.23,32,32,0,0,0-1.92-11.7c-1.65-4.47-4.13-7.75-7.18-9.49C64.55,29.57,60.67,29,56.75,29Z"/><path class="cls-1" d="M42.35,59.07a7.4,7.4,0,1,1,7.4-7.39A7.4,7.4,0,0,1,42.35,59.07Zm0-13.13a5.74,5.74,0,1,0,5.74,5.74A5.75,5.75,0,0,0,42.35,45.94Z"/><path class="cls-1" d="M42.35,59.41a7.74,7.74,0,1,1,7.74-7.73A7.74,7.74,0,0,1,42.35,59.41Zm0-14.79a7.06,7.06,0,1,0,7.06,7.06A7.06,7.06,0,0,0,42.35,44.62Zm0,13.13a6.08,6.08,0,1,1,6.08-6.07A6.07,6.07,0,0,1,42.35,57.75Zm0-11.48a5.41,5.41,0,1,0,5.4,5.41A5.42,5.42,0,0,0,42.35,46.27Z"/><path class="cls-1" d="M61.44,59.07a7.4,7.4,0,1,1,7.4-7.39A7.4,7.4,0,0,1,61.44,59.07Zm0-13.13a5.74,5.74,0,1,0,5.74,5.74A5.75,5.75,0,0,0,61.44,45.94Z"/><path class="cls-1" d="M61.44,59.41a7.74,7.74,0,1,1,7.74-7.73A7.74,7.74,0,0,1,61.44,59.41Zm0-14.79a7.06,7.06,0,1,0,7.06,7.06A7.06,7.06,0,0,0,61.44,44.62Zm0,13.13a6.08,6.08,0,1,1,6.08-6.07A6.08,6.08,0,0,1,61.44,57.75Zm0-11.48a5.41,5.41,0,1,0,5.4,5.41A5.41,5.41,0,0,0,61.44,46.27Z"/><path class="cls-1" d="M49.77,66.22h-.1c-1.06-.09-1.7-1.15-2.08-1.93-.51-1-.43-2.52,1.35-3.55.34-.2.62-.35.87-.48.71-.36.87-.45,1.07-.95a.83.83,0,0,1,.83-.53.84.84,0,0,1,.75.64c.09.23.9.65,1.29.86a5.74,5.74,0,0,1,1.24.77,2.93,2.93,0,0,1,.59,2.63,2.83,2.83,0,0,1-1.69,2.23,2.48,2.48,0,0,1-2.5-.43A2.82,2.82,0,0,1,49.77,66.22Zm0-1.65Zm2-3.57a4.61,4.61,0,0,1-1.15.73l-.8.44c-1.07.62-.79,1.2-.7,1.39.39.79.63,1,.71,1a4.34,4.34,0,0,0,1.07-.82.83.83,0,0,1,1.29.14,1,1,0,0,0,1.18.48c.37-.14.53-.62.59-.82a1.87,1.87,0,0,0,0-1.27,5.91,5.91,0,0,0-.89-.53A9.9,9.9,0,0,1,51.72,61Z"/><path class="cls-1" d="M49.78,66.56h-.13c-1.24-.11-1.95-1.26-2.37-2.12a3,3,0,0,1,1.49-4c.34-.2.63-.35.88-.48.71-.36.77-.4.91-.77a1.18,1.18,0,0,1,1.17-.75,1.16,1.16,0,0,1,1.05.9s.28.19,1.13.64a6.26,6.26,0,0,1,1.31.82,3.29,3.29,0,0,1,.69,2.94A3.17,3.17,0,0,1,54,66.23a2.82,2.82,0,0,1-2.62-.32A2.84,2.84,0,0,1,49.78,66.56Zm1.87-7.44a.5.5,0,0,0-.46.31c-.24.62-.51.76-1.22,1.13l-.86.47c-2,1.15-1.43,2.67-1.22,3.11.35.71.92,1.67,1.81,1.74h.08a2.48,2.48,0,0,0,1.4-.67l.21-.17.21.17a2.15,2.15,0,0,0,2.18.37,2.45,2.45,0,0,0,1.46-2,2.6,2.6,0,0,0-.47-2.3,5.65,5.65,0,0,0-1.16-.72c-1-.53-1.37-.79-1.47-1.05a.51.51,0,0,0-.46-.42Zm-1.89,5.81-.13-.06a2.55,2.55,0,0,1-.86-1.16c-.34-.69-.05-1.32.83-1.84.31-.18.58-.31.82-.44a4.55,4.55,0,0,0,1.07-.68l.21-.2.23.18a8.15,8.15,0,0,0,1.21.71,6.12,6.12,0,0,1,1,.57,2.1,2.1,0,0,1,.14,1.62,1.54,1.54,0,0,1-.81,1.05,1.32,1.32,0,0,1-1.57-.62.51.51,0,0,0-.37-.23.49.49,0,0,0-.4.15,4.59,4.59,0,0,1-1.19.9Zm2-3.5a6,6,0,0,1-1,.6l-.79.43c-.8.47-.64.79-.56.95a3.31,3.31,0,0,0,.45.74,4.42,4.42,0,0,0,.77-.65,1.18,1.18,0,0,1,1.83.2.67.67,0,0,0,.77.34.91.91,0,0,0,.38-.59,1.71,1.71,0,0,0,0-1c-.07-.05-.49-.27-.76-.42S52.1,61.66,51.74,61.43Z"/><polygon class="cls-1" points="61.1 38.52 67.38 41 68.22 39.12 61.67 36.01 61.1 38.52"/><path class="cls-1" d="M67.38,41.68a.56.56,0,0,1-.25,0l-6.28-2.47a.7.7,0,0,1-.42-.79L61,35.86a.66.66,0,0,1,.37-.46.65.65,0,0,1,.59,0l6.56,3.11a.69.69,0,0,1,.33.9L68,41.28A.68.68,0,0,1,67.38,41.68ZM61.9,38.09l5.13,2,.29-.66L62.15,37Z"/><polygon class="cls-1" points="43.24 39.81 36.97 42.29 36.13 40.42 42.68 37.31 43.24 39.81"/><path class="cls-1" d="M37,43a.67.67,0,0,1-.62-.41L35.5,40.7a.68.68,0,0,1,.33-.9l6.56-3.11a.68.68,0,0,1,.59,0,.7.7,0,0,1,.37.47l.56,2.5a.68.68,0,0,1-.41.79l-6.28,2.48A.6.6,0,0,1,37,43ZM37,40.75l.29.66,5.12-2L42.2,38.3Z"/><path class="cls-1" d="M35.72,77.57a.85.85,0,0,1-.92-.66c-.36-1.79-.72-3.56-1.09-5.34a.77.77,0,0,1,.14-.64.89.89,0,0,1,.6-.35c.61-.33,15.67-1.6,18.09-1.31a126.73,126.73,0,0,1,14.95,1.17.84.84,0,0,1,.72.92l-.57,4.43a.83.83,0,0,1-.93.72h0a75.32,75.32,0,0,0-12-.37c-6.18.3-12.87.77-14.78,1-1.67.13-4.16.47-4.18.47Zm-.13-5.48c.24,1.25.48,2.49.71,3.73.89-.12,2.36-.29,3.48-.38,1.92-.19,8.64-.66,14.82-1a77,77,0,0,1,11.46.29L66.39,72a123.53,123.53,0,0,0-13.87-1A136.91,136.91,0,0,0,35.59,72.09Z"/><path class="cls-1" d="M35.78,77.9h0A1.18,1.18,0,0,1,34.47,77l-1.11-5.33a1.15,1.15,0,0,1,.2-.91,1.3,1.3,0,0,1,.84-.49l.66-.09a124.71,124.71,0,0,1,17.48-1.22,126.52,126.52,0,0,1,15,1.18,1.19,1.19,0,0,1,1,1.3c-.2,1.48-.39,3-.58,4.42a1.19,1.19,0,0,1-1.32,1,76.1,76.1,0,0,0-12-.37c-6.14.29-12.86.77-14.77,1-1.48.11-3.6.39-4.07.46Zm16.76-8.29a121.94,121.94,0,0,0-17.38,1.21l-.67.09a.56.56,0,0,0-.35.21.47.47,0,0,0-.08.38l1.08,5.34a.49.49,0,0,0,.54.39l.11,0c.47-.06,2.61-.34,4.1-.46,1.92-.19,8.64-.66,14.79-1a75.49,75.49,0,0,1,12,.37.51.51,0,0,0,.58-.42c.19-1.48.37-3,.56-4.43a.5.5,0,0,0-.43-.55A125.74,125.74,0,0,0,52.54,69.61ZM36,76.2c-.28-1.47-.56-2.93-.85-4.39l.37,0a137,137,0,0,1,17-1.17,126.61,126.61,0,0,1,13.91,1l.34,0c-.14,1.16-.27,2.32-.41,3.48l-.34,0a76.12,76.12,0,0,0-11.41-.29c-6.15.29-12.89.77-14.81,1-1.11.09-2.58.26-3.47.37Zm0-3.82c.2,1,.39,2,.58,3.06.9-.11,2.18-.26,3.17-.34,1.93-.19,8.67-.67,14.84-1a77.45,77.45,0,0,1,11.16.26c.09-.72.17-1.44.25-2.16a126.86,126.86,0,0,0-13.48-1A135.7,135.7,0,0,0,36,72.38Z"/><path class="cls-1" d="M41.83,76.81a.83.83,0,0,1-.88-.7q-.41-2.65-.83-5.31a.84.84,0,0,1,.74-.94.86.86,0,0,1,1,.69q.39,2.65.76,5.32a.83.83,0,0,1-.71.93Z"/><path class="cls-1" d="M41.86,77.15a1.18,1.18,0,0,1-1.25-1q-.4-2.66-.84-5.3a1.19,1.19,0,0,1,1-1.34,1.21,1.21,0,0,1,1.39,1c.26,1.78.5,3.55.75,5.32a1.14,1.14,0,0,1-.23.86,1.19,1.19,0,0,1-.77.46Zm-.91-7h0a.49.49,0,0,0-.43.56l.81,5.3a.49.49,0,0,0,.52.42l0,.34c0-.12,0-.23,0-.34a.51.51,0,0,0,.32-.19.5.5,0,0,0,.1-.37q-.37-2.66-.78-5.31A.49.49,0,0,0,41,70.19Z"/><path class="cls-1" d="M48.32,76.36a.85.85,0,0,1-.85-.7c-.28-1.79-.56-3.58-.86-5.37a.83.83,0,0,1,.73-1,.86.86,0,0,1,1,.7q.42,2.68.8,5.37a.83.83,0,0,1-.7.94Z"/><path class="cls-1" d="M48.32,76.7a1.17,1.17,0,0,1-1.18-1c-.29-1.79-.58-3.58-.89-5.36a1.13,1.13,0,0,1,.22-.87,1.28,1.28,0,0,1,1.73-.26,1.16,1.16,0,0,1,.49.77q.41,2.69.78,5.37a1.13,1.13,0,0,1-.22.87,1.22,1.22,0,0,1-.77.46Zm-.86-7h-.07a.53.53,0,0,0-.34.19.49.49,0,0,0-.09.37c.29,1.79.58,3.57.85,5.36a.5.5,0,0,0,.5.42h.06a.48.48,0,0,0,.33-.2.46.46,0,0,0,.09-.36q-.39-2.68-.81-5.37A.52.52,0,0,0,47.46,69.67Z"/><path class="cls-1" d="M54.84,75.37a.84.84,0,0,1-.81-.68c-.26-1.46-.54-2.91-.82-4.37a.82.82,0,0,1,.7-1,.87.87,0,0,1,1,.67q.4,2.19.78,4.38a.83.83,0,0,1-.7,1A.43.43,0,0,1,54.84,75.37Z"/><path class="cls-1" d="M54.83,75.71a1.19,1.19,0,0,1-1.14-1c-.27-1.46-.55-2.91-.83-4.36a1.07,1.07,0,0,1,.19-.88,1.24,1.24,0,0,1,.79-.48,1.27,1.27,0,0,1,.93.19,1.13,1.13,0,0,1,.5.76c.27,1.46.52,2.91.77,4.37a1.13,1.13,0,0,1-.21.87,1.22,1.22,0,0,1-.77.48Zm-.75-6H54a.56.56,0,0,0-.33.21.42.42,0,0,0-.08.36c.28,1.46.55,2.91.81,4.37A.51.51,0,0,0,55,75a.48.48,0,0,0,.32-.2.45.45,0,0,0,.08-.37c-.25-1.45-.51-2.91-.78-4.37a.45.45,0,0,0-.21-.31A.49.49,0,0,0,54.08,69.69Z"/><path class="cls-1" d="M62.25,76.1a.83.83,0,0,1-.76-.74c-.16-1.48-.33-3-.5-4.43a.83.83,0,0,1,.77-.91.86.86,0,0,1,1,.74Q63,73,63.17,75.2a.83.83,0,0,1-.76.9A.43.43,0,0,1,62.25,76.1Z"/><path class="cls-1" d="M62.23,76.44a1.2,1.2,0,0,1-1.09-1c-.16-1.47-.33-3-.5-4.43a1.17,1.17,0,0,1,1.09-1.28,1.25,1.25,0,0,1,1.35,1c.15,1.48.29,3,.43,4.44a1.18,1.18,0,0,1-1.07,1.27A.74.74,0,0,1,62.23,76.44Zm-.34-6.08a.14.14,0,0,0-.09,0,.47.47,0,0,0-.34.17.48.48,0,0,0-.12.36c.18,1.48.34,3,.49,4.44a.52.52,0,0,0,.55.44.5.5,0,0,0,.44-.54c-.14-1.48-.29-3-.45-4.43A.5.5,0,0,0,61.89,70.36Z"/><path class="cls-1" d="M35.7,87.66a.86.86,0,0,1-.77-.85c.12-1.75.26-3.49.4-5.24a.86.86,0,0,1,.3-.61.88.88,0,0,1,.66-.18s6.34.82,8.55.88c.91,0,2.67,0,4.7-.08,2.84-.15,6-.48,8.38-.64,4-.27,7.72-.82,7.72-.82a.84.84,0,0,1,1,.7l.84,5.4a.77.77,0,0,1-.19.64.92.92,0,0,1-.63.32c-4.68.42-11.55,1-16.07,1.21a95.52,95.52,0,0,1-14.83-.73ZM37,82.55l-.3,3.57a91,91,0,0,0,13.74.62c4.21-.16,10.48-.69,15.1-1.14L65,81.88c-1.33.18-4.08.51-7,.71-2.33.16-5.54.49-8.39.64-2.1.11-3.91.14-4.9.08C43,83.23,38.88,82.83,37,82.55Z"/><path class="cls-1" d="M35.65,88a1.24,1.24,0,0,1-1.09-1.21L35,81.54a1.16,1.16,0,0,1,.43-.84,1.2,1.2,0,0,1,.93-.25s6.31.81,8.52.87a46.21,46.21,0,0,0,4.66-.08c2.83-.15,6-.47,8.38-.64,4-.27,7.69-.81,7.69-.81a1.18,1.18,0,0,1,1.34,1c.29,1.8.57,3.6.86,5.4a1.14,1.14,0,0,1-.27.91,1.25,1.25,0,0,1-.88.44c-4.69.43-11.56,1.06-16.08,1.22A96.81,96.81,0,0,1,35.67,88Zm22.29-6.73c-2.35.17-5.54.5-8.38.64-2,.11-3.8.14-4.74.09-2.22-.07-8.58-.83-8.58-.88a.5.5,0,0,0-.39.11.47.47,0,0,0-.18.35c-.13,1.75-.26,3.51-.38,5.26a.5.5,0,0,0,.46.48h0a95.6,95.6,0,0,0,14.76.72c4.51-.16,11.38-.79,16.07-1.21a.6.6,0,0,0,.37-.19.48.48,0,0,0,.11-.38c-.27-1.8-.55-3.6-.82-5.4a.49.49,0,0,0-.56-.41S62,81,57.94,81.27ZM36.33,86.41c.11-1.41.23-2.83.36-4.24l.36,0c1.87.28,6,.67,7.71.75,1,.06,2.75,0,4.8-.08,2.76-.13,6.09-.47,8.45-.64,2.92-.19,5.66-.53,7-.71l.34,0L66,85.91l-.38,0c-4.66.45-11,1-15.11,1.14a91.46,91.46,0,0,1-13.8-.62Zm1-3.47c-.07,1-.15,1.92-.22,2.88a88.59,88.59,0,0,0,13.33.58c4-.15,10.1-.65,14.72-1.1-.14-1-.27-2-.41-3-1.43.19-4,.49-6.68.67-2.36.17-5.7.5-8.4.64-2.14.11-3.95.14-4.94.08C43.11,83.57,39.33,83.23,37.32,82.94Z"/><path class="cls-1" d="M41.12,86.74a.86.86,0,0,1-.8-.87c.06-1,.11-2,.17-3a.84.84,0,0,1,.89-.78.85.85,0,0,1,.81.87l-.12,3a.83.83,0,0,1-.91.78Z"/><path class="cls-1" d="M41.09,87.08A1.21,1.21,0,0,1,40,85.85l.18-3A1.18,1.18,0,0,1,41.4,81.8h0A1.19,1.19,0,0,1,42.54,83c0,1-.07,2-.11,3a1.12,1.12,0,0,1-.39.81,1.25,1.25,0,0,1-.9.3Zm.29-4.61h0a.5.5,0,0,0-.52.46c-.06,1-.11,2-.16,3a.5.5,0,0,0,.47.51l0,.34,0-.34a.5.5,0,0,0,.56-.46l.12-3A.5.5,0,0,0,41.38,82.47Z"/><path class="cls-1" d="M47.88,87.13a.86.86,0,0,1-.85-.75c-.08-.8-.15-1.6-.23-2.4a.83.83,0,0,1,.77-.9.84.84,0,0,1,.93.74l.27,2.4a.83.83,0,0,1-.78.91Z"/><path class="cls-1" d="M47.87,87.47a1.2,1.2,0,0,1-1.19-1.06c-.08-.8-.16-1.6-.23-2.4a1.21,1.21,0,0,1,2-1,1.11,1.11,0,0,1,.44.79c.09.79.19,1.59.28,2.39a1.12,1.12,0,0,1-.26.86,1.32,1.32,0,0,1-.84.43Zm-.2-4.06h-.06a.49.49,0,0,0-.46.53l.24,2.4a.51.51,0,0,0,.5.44H48a.49.49,0,0,0,.47-.53c-.09-.8-.18-1.6-.26-2.4a.51.51,0,0,0-.19-.34A.6.6,0,0,0,47.67,83.41Z"/><path class="cls-1" d="M54.59,86.75h-.11a.83.83,0,0,1-.79-.9c.11-1,.21-2,.31-3.08a.84.84,0,0,1,.92-.75.83.83,0,0,1,.77.89c-.08,1-.17,2.06-.26,3.09A.85.85,0,0,1,54.59,86.75Z"/><path class="cls-1" d="M54.6,87.09h-.15a1.18,1.18,0,0,1-1.12-1.27l.33-3.09a1.17,1.17,0,0,1,.42-.78,1.19,1.19,0,0,1,2,1c-.08,1-.16,2-.25,3.08A1.2,1.2,0,0,1,54.6,87.09Zm.22-4.74a.56.56,0,0,0-.3.12.47.47,0,0,0-.17.33c-.1,1-.2,2-.31,3.08a.49.49,0,0,0,.47.53h.06a.52.52,0,0,0,.5-.45c.09-1,.19-2.06.27-3.09a.48.48,0,0,0-.45-.52Z"/><path class="cls-1" d="M60.46,86.37h-.14a.83.83,0,0,1-.8-.89c.1-1.09.19-2.19.28-3.29a.85.85,0,0,1,.91-.76.83.83,0,0,1,.78.88c-.07,1.09-.15,2.19-.23,3.29A.86.86,0,0,1,60.46,86.37Z"/><path class="cls-1" d="M60.49,86.7H60.3a1.18,1.18,0,0,1-1.14-1.26c.11-1.09.21-2.19.3-3.28a1.2,1.2,0,0,1,.41-.8,1.22,1.22,0,0,1,.86-.28,1.2,1.2,0,0,1,.81.39,1.16,1.16,0,0,1,.3.85c-.07,1.09-.14,2.19-.22,3.29A1.2,1.2,0,0,1,60.49,86.7Zm.11-4.93a.54.54,0,0,0-.28.11.51.51,0,0,0-.17.34l-.27,3.29a.49.49,0,0,0,.47.52h.08a.5.5,0,0,0,.47-.45q.14-1.65.24-3.3a.47.47,0,0,0-.12-.35.48.48,0,0,0-.34-.16Z"/><path class="cls-1" d="M50.91,93.52c-12.53-.24-14.36-6.22-14.4-6.3a.8.8,0,0,1,.6-1,.91.91,0,0,1,1.1.57c0-.09,1.71,4.89,12.7,5.09,11.1-.18,12.55-5.61,12.55-5.53a.9.9,0,0,1,1.07-.62.82.82,0,0,1,.65,1C65.14,86.8,63.49,93.29,50.91,93.52Z"/><path class="cls-1" d="M50.91,93.86c-12.84-.26-14.71-6.47-14.76-6.55a1.09,1.09,0,0,1,.11-.88,1.22,1.22,0,0,1,.74-.55A1.26,1.26,0,0,1,38,86a1.16,1.16,0,0,1,.6.69c0-.08,1.78,4.67,12.36,4.85,10.69-.17,12.21-5.35,12.2-5.28a1.21,1.21,0,0,1,.56-.72,1.34,1.34,0,0,1,.94-.14,1.25,1.25,0,0,1,.77.51,1.1,1.1,0,0,1,.15.88C65.49,86.88,63.8,93.62,50.91,93.86ZM37.42,86.52a.5.5,0,0,0-.21,0,.53.53,0,0,0-.31.23.43.43,0,0,0,0,.38c0,.06,1.8,5.81,14,6,12.28-.22,13.88-6.46,13.91-6.54a.48.48,0,0,0-.38-.59.53.53,0,0,0-.39.06.5.5,0,0,0-.24.3c0-.07-1.51,5.61-12.9,5.8-11.27-.21-13-5.41-13-5.33a.5.5,0,0,0-.25-.3A.7.7,0,0,0,37.42,86.52Z"/><path class="cls-1" d="M80.74,38.93l4.88-4.78a2.15,2.15,0,0,1,3.39.51h0a2.15,2.15,0,0,1-1.53,3.13Z"/><path class="cls-1" d="M24.91,35.87l-3.49-4.3a1.38,1.38,0,0,0-2.32.29h0a1.38,1.38,0,0,0,.72,1.85Z"/><path class="cls-1" d="M51.08,14.54h0a1.84,1.84,0,0,1,1.78,2.36l-1.54,5.2L49.39,17A1.83,1.83,0,0,1,51.08,14.54Z"/><path class="cls-1" d="M92.43,86.51l1.72-22h7.76l.79,22ZM93.82,58a4.16,4.16,0,0,1,.35-1.71,4.59,4.59,0,0,1,1-1.4A4.35,4.35,0,0,1,96.52,54a4.42,4.42,0,0,1,3.4,0,4.44,4.44,0,0,1,1.41.95,4.41,4.41,0,0,1,.94,4.84,4.26,4.26,0,0,1-.94,1.4,4.63,4.63,0,0,1-1.41,1,4.3,4.3,0,0,1-3.4,0,4.54,4.54,0,0,1-1.39-1,4.47,4.47,0,0,1-1-1.4A4.22,4.22,0,0,1,93.82,58Z"/><path class="cls-1" d="M132.49,75.66,122.1,77l-1.26-4.74h-4.78L115,77l-10.69-1L112.67,48l11.65-.58Zm-12.4-9.81-1.6-7.3-1.55,7.3Z"/><path class="cls-1" d="M168.22,57.3a10.06,10.06,0,0,1-.6,3.6A8.77,8.77,0,0,1,166,63.65a10.29,10.29,0,0,1-2.48,2A15.73,15.73,0,0,1,160.42,67a20.85,20.85,0,0,1-3.37.75,26.81,26.81,0,0,1-3.41.27v9.76h-9.77q0-4.8,0-9.55c0-3.18,0-6.38.06-9.6,0-1.71,0-3.41,0-5.12s0-3.42.11-5.15a40,40,0,0,1,5.36-1.2,38.53,38.53,0,0,1,5.54-.4,19.65,19.65,0,0,1,3.23.27,16,16,0,0,1,3.09.82A13.66,13.66,0,0,1,164,49.24a9.18,9.18,0,0,1,2.19,2,9.31,9.31,0,0,1,1.46,2.67A9.89,9.89,0,0,1,168.22,57.3Zm-9.3.71a2.76,2.76,0,0,0-.83-2.13,3,3,0,0,0-2.15-.76,5.75,5.75,0,0,0-.91.07c-.31.05-.61.11-.89.18l-.25,6.12a3.6,3.6,0,0,0,.56,0H155a4.27,4.27,0,0,0,1.46-.25,4,4,0,0,0,1.24-.72,3.57,3.57,0,0,0,.87-1.11A3.12,3.12,0,0,0,158.92,58Z"/><path class="cls-1" d="M196.53,62.66a15.39,15.39,0,0,1-.44,3.68,14.72,14.72,0,0,1-1.27,3.32,13.51,13.51,0,0,1-2,2.84,12.85,12.85,0,0,1-5.88,3.65,13.06,13.06,0,0,1-3.69.51,13.26,13.26,0,0,1-3.6-.48,13.66,13.66,0,0,1-3.19-1.35A13.17,13.17,0,0,1,171.7,70a14.52,14.52,0,0,1-1.32-3.22,13.62,13.62,0,0,1-.47-3.58,14.81,14.81,0,0,1,.44-3.58,14.64,14.64,0,0,1,1.27-3.3,14.48,14.48,0,0,1,2-2.85,13.39,13.39,0,0,1,2.63-2.24,12.59,12.59,0,0,1,3.15-1.47,12.13,12.13,0,0,1,3.59-.52,15.6,15.6,0,0,1,5.54.94,11.75,11.75,0,0,1,7,6.93A15.05,15.05,0,0,1,196.53,62.66Zm-9.31.55a6,6,0,0,0-.26-1.75,4.79,4.79,0,0,0-.77-1.51A3.88,3.88,0,0,0,185,58.88a3.54,3.54,0,0,0-1.71-.41,4.13,4.13,0,0,0-1.76.36,4,4,0,0,0-1.33,1,4.21,4.21,0,0,0-.85,1.45A5.06,5.06,0,0,0,179,63a6.29,6.29,0,0,0,.25,1.76,5.06,5.06,0,0,0,.75,1.59,3.92,3.92,0,0,0,1.25,1.15,3.25,3.25,0,0,0,1.73.44,4,4,0,0,0,1.77-.38,4,4,0,0,0,1.33-1,5,5,0,0,0,.84-1.52A5.63,5.63,0,0,0,187.22,63.21Z"/><path class="cls-1" d="M220,48l-1.17,8.85a6.71,6.71,0,0,0-1.22-.23,10,10,0,0,0-1.22-.07,10.57,10.57,0,0,0-3,.41A7.16,7.16,0,0,0,211,58.2a6.13,6.13,0,0,0-1.72,2.09,6.42,6.42,0,0,0-.64,3,4.73,4.73,0,0,0,.34,1.89,3.52,3.52,0,0,0,1,1.32,4.06,4.06,0,0,0,1.49.77,6.58,6.58,0,0,0,1.88.25,8.39,8.39,0,0,0,1.62-.16,16.06,16.06,0,0,0,1.65-.44q.83-.28,1.59-.63c.52-.24,1-.49,1.43-.74l-.84,9.85a13.08,13.08,0,0,1-1.77.75c-.64.21-1.29.4-2,.56a17.71,17.71,0,0,1-2,.37,16.32,16.32,0,0,1-1.93.13,12.54,12.54,0,0,1-9-3.69,12.68,12.68,0,0,1-2.67-4.06,13,13,0,0,1-1-5,22,22,0,0,1,1-6.76,16.44,16.44,0,0,1,3-5.56,14.23,14.23,0,0,1,4.93-3.78,15.85,15.85,0,0,1,6.78-1.38,20.22,20.22,0,0,1,3,.23A10.06,10.06,0,0,1,220,48Z"/><path class="cls-1" d="M248.23,62.66a15.39,15.39,0,0,1-.44,3.68,14.72,14.72,0,0,1-1.27,3.32,13.51,13.51,0,0,1-2,2.84,12.85,12.85,0,0,1-5.88,3.65,13.63,13.63,0,0,1-7.28,0,13.55,13.55,0,0,1-3.2-1.35A13.17,13.17,0,0,1,223.4,70a14.52,14.52,0,0,1-1.32-3.22,13.62,13.62,0,0,1-.47-3.58,14.81,14.81,0,0,1,.44-3.58,14.64,14.64,0,0,1,1.27-3.3,14.48,14.48,0,0,1,2-2.85A13.39,13.39,0,0,1,228,51.24a12.59,12.59,0,0,1,3.15-1.47,12.13,12.13,0,0,1,3.59-.52,15.6,15.6,0,0,1,5.54.94,11.75,11.75,0,0,1,7,6.93A15.05,15.05,0,0,1,248.23,62.66Zm-9.31.55a5.71,5.71,0,0,0-.26-1.75A4.77,4.77,0,0,0,237.9,60a4,4,0,0,0-1.25-1.07,3.54,3.54,0,0,0-1.71-.41,4.13,4.13,0,0,0-1.76.36,4,4,0,0,0-1.33,1,4.37,4.37,0,0,0-.85,1.45,5.06,5.06,0,0,0-.29,1.75,6.29,6.29,0,0,0,.25,1.76,5.29,5.29,0,0,0,.75,1.59A3.92,3.92,0,0,0,233,67.5a3.28,3.28,0,0,0,1.73.44,3.9,3.9,0,0,0,1.77-.38,4,4,0,0,0,1.33-1,5,5,0,0,0,.84-1.52A5.63,5.63,0,0,0,238.92,63.21Z"/><path class="cls-1" d="M261.21,46.31l-1.72,22h-7.75l-.8-22Zm-1.38,28.51a4.14,4.14,0,0,1-.36,1.72,4.64,4.64,0,0,1-1,1.39,4.48,4.48,0,0,1-1.4.94,4,4,0,0,1-1.69.35,4.1,4.1,0,0,1-1.72-.35,4.4,4.4,0,0,1-2.34-2.33,4.3,4.3,0,0,1-.35-1.72,4.41,4.41,0,0,1,.35-1.72,4.3,4.3,0,0,1,.94-1.41,4.71,4.71,0,0,1,1.4-1,4.1,4.1,0,0,1,1.72-.35,4,4,0,0,1,1.69.35,4.71,4.71,0,0,1,1.4,1,4.49,4.49,0,0,1,1,1.41A4.24,4.24,0,0,1,259.83,74.82Z"/></svg>
