<svg id="Layer_2" data-name="Layer 2" xmlns="http://www.w3.org/2000/svg" width="502.8" height="462.62" viewBox="0 0 502.8 462.62"><defs><style>.cls-1{fill:#005acf;}</style></defs><title>a_poco-logo-blue</title><path class="cls-1" d="M307.42,265.79a3.71,3.71,0,0,1-3.71-3.71c0-7,7.54-14.76,17.4-24.13,2.64-2.51,5.13-4.88,6.47-6.49.48-.57,1.06-1.24,1.72-2,6.47-7.43,21.62-24.83,22.53-51.2C353,145.89,340.05,103.43,314,88.51,298.6,79.74,275,79,257.81,80c-20.88,1.15-41,5.26-51.73,8.83-22.33,7.45-38.09,23-54.38,53.66-15.44,29.06-5.32,57.87.72,75.07.59,1.69,1.14,3.25,1.61,4.66,2.57,7.7,9.8,15.67,16.18,22.7,6.51,7.18,11.21,12.36,11.21,17.18a3.69,3.69,0,0,1-3.69,3.69h0a3.71,3.71,0,0,1-3.71-3.69c0-2-5.6-8.12-9.29-12.19-6.87-7.58-14.66-16.16-17.72-25.34-.46-1.38-1-2.9-1.57-4.54-6-17.16-17.25-49.09-.28-81,17.28-32.53,34.26-49.11,58.59-57.22,19.12-6.37,81.63-18.14,113.9.3,14,8,25.39,23,32.9,43.39a145.11,145.11,0,0,1,8.72,53.06c-1,29-17.36,47.79-24.35,55.81-.62.72-1.17,1.35-1.61,1.88a100.28,100.28,0,0,1-7.07,7.12c-5.64,5.37-15.09,14.34-15.09,18.75A3.71,3.71,0,0,1,307.42,265.79Z"/><path class="cls-1" d="M210.74,220.64a33.18,33.18,0,1,1,33.17-33.18A33.21,33.21,0,0,1,210.74,220.64Zm0-58.93a25.75,25.75,0,1,0,25.75,25.75A25.78,25.78,0,0,0,210.74,161.71Z"/><path class="cls-1" d="M284.22,220.64a33.18,33.18,0,1,1,33.18-33.18A33.21,33.21,0,0,1,284.22,220.64Zm0-58.93A25.75,25.75,0,1,0,310,187.46,25.78,25.78,0,0,0,284.22,161.71Z"/><path class="cls-1" d="M238,246.65a3.46,3.46,0,0,1-.46,0c-4.77-.39-7.63-5.13-9.37-8.67-2.28-4.65-1.89-11.29,6.08-15.93,1.51-.88,2.78-1.54,3.9-2.12,3.17-1.64,3.93-2,4.79-4.28a3.71,3.71,0,0,1,7.08.49c.41,1,4.06,2.94,5.82,3.86a27.62,27.62,0,0,1,5.57,3.47c3.07,2.79,3.33,8.09,2.61,11.77-1,4.94-3.7,8.6-7.55,10a11.12,11.12,0,0,1-11.23-1.92C243.06,245.06,240.42,246.65,238,246.65Zm-.14-7.41Zm8.87-16a21.7,21.7,0,0,1-5.16,3.3c-1,.55-2.23,1.16-3.58,1.95-4.83,2.81-3.57,5.4-3.15,6.24,1.74,3.54,2.84,4.33,3.19,4.5a18.71,18.71,0,0,0,4.77-3.68,3.71,3.71,0,0,1,5.81.63c.37.57,2.28,3.26,5.27,2.15,1.66-.61,2.42-2.77,2.67-3.67.73-2.64.26-5.16-.18-5.72a25.52,25.52,0,0,0-4-2.34A41.76,41.76,0,0,1,246.69,223.2Z"/><polygon class="cls-1" points="282.32 125.27 316.25 138.67 320.78 128.55 285.37 111.75 282.32 125.27"/><path class="cls-1" d="M316.25,142.38a3.65,3.65,0,0,1-1.36-.26L281,128.73a3.73,3.73,0,0,1-2.26-4.27l3.05-13.52A3.7,3.7,0,0,1,287,108.4l35.41,16.8a3.7,3.7,0,0,1,1.8,4.87l-4.53,10.11A3.72,3.72,0,0,1,316.25,142.38ZM286.65,123l27.66,10.92,1.6-3.56L288,117.09Z"/><polygon class="cls-1" points="215.12 132.28 181.19 145.68 176.66 135.56 212.07 118.76 215.12 132.28"/><path class="cls-1" d="M181.19,149.39a3.72,3.72,0,0,1-3.39-2.19l-4.53-10.12a3.71,3.71,0,0,1,1.8-4.87l35.41-16.8a3.71,3.71,0,0,1,5.21,2.54l3.05,13.52a3.72,3.72,0,0,1-2.26,4.27l-33.93,13.39A3.61,3.61,0,0,1,181.19,149.39Zm.34-12,1.6,3.56L210.8,130l-1.33-5.89Z"/><path class="cls-1" d="M175.06,291.62a3.73,3.73,0,0,1-4.1-2.95q-2.44-12-5-23.94a3.59,3.59,0,0,1,.64-2.88,4,4,0,0,1,2.65-1.56c2.73-1.5,70.22-7.3,81.06-6,10.74-.57,59.39,3.4,67,5.33a3.79,3.79,0,0,1,3.23,4.15L318,283.67a3.75,3.75,0,0,1-4.19,3.21h-.1A328.68,328.68,0,0,0,260,285.14c-27.71,1.3-57.6,3.47-66.13,4.31-7.49.6-18.6,2.13-18.71,2.16Zm-.64-24.54q1.64,8.34,3.24,16.7c4-.54,10.57-1.32,15.58-1.73,8.56-.84,38.58-3,66.35-4.33a337.11,337.11,0,0,1,51.29,1.37l1.5-12.66c-13.5-2.34-52.74-5-62.1-4.67C241.21,261,189.3,264.29,174.42,267.08Z"/><path class="cls-1" d="M198.24,288.49a3.73,3.73,0,0,1-4-3.12q-1.92-11.89-3.91-23.76a3.76,3.76,0,0,1,3.26-4.27,3.84,3.84,0,0,1,4.45,3.08q1.84,11.91,3.61,23.81a3.74,3.74,0,0,1-3.14,4.23Z"/><path class="cls-1" d="M219.09,286.4a3.75,3.75,0,0,1-3.79-2.81q-3-11.64-6.13-23.25a3.71,3.71,0,0,1,2.82-4.53,3.89,3.89,0,0,1,4.75,2.68q3,11.64,5.85,23.32a3.73,3.73,0,0,1-2.76,4.48A3.9,3.9,0,0,1,219.09,286.4Z"/><path class="cls-1" d="M243.21,286a3.74,3.74,0,0,1-3.72-3.22q-1.63-12.07-3.41-24.14a3.75,3.75,0,0,1,3.34-4.19,3.88,3.88,0,0,1,4.4,3.2q1.62,12.09,3.12,24.18a3.72,3.72,0,0,1-3.25,4.14A1.94,1.94,0,0,1,243.21,286Z"/><path class="cls-1" d="M260.63,281.72a3.77,3.77,0,0,1-3.61-3.07q-1.78-9.79-3.69-19.59a3.71,3.71,0,0,1,3.15-4.31,3.89,3.89,0,0,1,4.54,3q1.8,9.81,3.46,19.63a3.73,3.73,0,0,1-3.1,4.27A3.78,3.78,0,0,1,260.63,281.72Z"/><path class="cls-1" d="M284.85,283.09a3.78,3.78,0,0,1-3.37-2.65q-3.06-10.05-6.37-20.08a3.65,3.65,0,0,1,2.56-4.64,4,4,0,0,1,4.9,2.49q3.21,10.07,6.17,20.15a3.69,3.69,0,0,1-2.57,4.59A3.77,3.77,0,0,1,284.85,283.09Z"/><path class="cls-1" d="M299.88,284.51h0a3.75,3.75,0,0,1-3.41-4.05L298.24,261a3.8,3.8,0,0,1,4.24-3.33h0a3.81,3.81,0,0,1,3.53,4.09q-1,9.7-2,19.41A3.75,3.75,0,0,1,299.88,284.51Z"/><path class="cls-1" d="M176.25,409.63a3.85,3.85,0,0,1-3.38-3.82q.23-7.23.49-14.46a3.7,3.7,0,0,1,1.36-2.72,3.83,3.83,0,0,1,3-.81c0,.24,28.32,3.72,38.23,4,4.07.26,11.94.15,21-.35,12.69-.64,27-2.12,37.46-2.89,18.05-1.21,34.52-3.72,34.52-3.72a3.75,3.75,0,0,1,4.25,3.1q1.21,7.6,2.41,15.2a3.65,3.65,0,0,1-.8,2.88,4.08,4.08,0,0,1-2.77,1.42c-20.56,1.92-50.73,4.74-70.59,5.45-19.57,1.72-64.72-2.67-65.12-3.27Zm4.6-13.86c0,2.32-.08,4.63-.11,7,10.81,1.71,44.35,3.94,60.29,2.77,18.48-.69,46-3.09,66.29-5.08l-1.08-7.67c-5.94.84-18.23,2.36-31.33,3.25-10.41.76-24.77,2.24-37.55,2.9-9.37.51-17.5.62-21.9.35C207.8,398.88,189.22,397.06,180.85,395.77Z"/><path class="cls-1" d="M187.74,408.07a3.84,3.84,0,0,1-3.44-3.69c0-3.85,0-7.71-.05-11.56a3.79,3.79,0,0,1,7.58,0q.09,5.77.24,11.56a3.74,3.74,0,0,1-3.82,3.75Z"/><path class="cls-1" d="M205.94,412.12a3.79,3.79,0,0,1-3.59-3.86q.28-6.63.59-13.26a3.78,3.78,0,0,1,7.56.29q-.19,6.65-.36,13.27a3.78,3.78,0,0,1-4,3.58Z"/><path class="cls-1" d="M229.64,410.87a3.82,3.82,0,0,1-3.74-3.37c-.34-3.59-.68-7.18-1-10.78a3.73,3.73,0,0,1,3.4-4,3.79,3.79,0,0,1,4.13,3.33c.38,3.58.78,7.17,1.18,10.76a3.72,3.72,0,0,1-3.46,4.07A4.35,4.35,0,0,1,229.64,410.87Z"/><path class="cls-1" d="M247.67,411.9a4,4,0,0,1-.49,0,3.73,3.73,0,0,1-3.4-4.13q.89-6.89,1.72-13.78a3.77,3.77,0,0,1,7.49.82q-.74,6.9-1.5,13.81A3.83,3.83,0,0,1,247.67,411.9Z"/><path class="cls-1" d="M270.84,411.11h-.13a3.76,3.76,0,0,1-4-3.61q-.12-7.25-.26-14.48a3.76,3.76,0,0,1,7.51-.21c.18,4.82.34,9.64.51,14.47A3.81,3.81,0,0,1,270.84,411.11Z"/><path class="cls-1" d="M285.54,409.88a3.41,3.41,0,0,1-.64,0,3.71,3.71,0,0,1-3.56-4q.65-7.38,1.22-14.74a3.76,3.76,0,0,1,7.5.49q-.45,7.38-1,14.75A3.83,3.83,0,0,1,285.54,409.88Z"/><path class="cls-1" d="M243.06,435.93C187.87,434.82,180,408,179.8,407.68a3.66,3.66,0,0,1,2.66-4.57,4,4,0,0,1,4.83,2.57c0-.39,7.42,22,55.78,22.83,44.46-.6,53.7-21.22,54.88-24.26q-.85-7-1.72-13.95a3.74,3.74,0,0,1,3.24-4.16h0a3.76,3.76,0,0,1,4.2,3.17L305.76,404a3.62,3.62,0,0,1-.06,1.35C305.54,405.77,298.45,434.9,243.06,435.93Z"/><path class="cls-1" d="M189.73,43l8.65,13.14,3.1-15.42a6.48,6.48,0,0,0-8.18-7.49h0A6.47,6.47,0,0,0,189.73,43Z"/><path class="cls-1" d="M373.28,132.22l15.78-15.35A6.91,6.91,0,0,1,400,118.58h0a6.91,6.91,0,0,1-5,10.06Z"/><path class="cls-1" d="M124.05,135.23l-13.41-11.79a4.44,4.44,0,0,0-7.21,2.15h0a4.44,4.44,0,0,0,3.25,5.5Z"/><path class="cls-1" d="M309.53,38.81h0A5.92,5.92,0,0,1,312.18,48L301.55,61.88V44.37A5.93,5.93,0,0,1,309.53,38.81Z"/><path class="cls-1" d="M94.1,403.35q-3.75-19.73-7.29-39.51,7.41-2,14.84-3.78,5.46,19.29,10.83,38.59Q103.26,400.86,94.1,403.35Zm-11-50.66a6.85,6.85,0,0,1-.11-3.18,8.21,8.21,0,0,1,1.21-3,9.11,9.11,0,0,1,2.31-2.37,9.23,9.23,0,0,1,3.19-1.47,9.62,9.62,0,0,1,3.53-.24,9.11,9.11,0,0,1,3.17,1,8.09,8.09,0,0,1,2.46,2,7,7,0,0,1,1.4,2.85,7.3,7.3,0,0,1,.06,3.22,8.19,8.19,0,0,1-1.23,2.92,9.49,9.49,0,0,1-2.3,2.35,9.2,9.2,0,0,1-3.14,1.45,8.86,8.86,0,0,1-3.43.21,9.25,9.25,0,0,1-3.12-1,8.65,8.65,0,0,1-2.5-2A7.11,7.11,0,0,1,83.13,352.69Z"/><path class="cls-1" d="M163.59,368.92q-9.61,2.58-19.1,5.48c-1.28-2.69-2.56-5.37-3.86-8.06q-4.51.81-9,1.69-.16,4.41-.31,8.83-10.12,1-20.26,2.42,2-26.5,5.3-53.08,11.67-2.94,23.45-5.45Q152.32,344.63,163.59,368.92Zm-26.46-13.78q-2.72-6.24-5.5-12.46-.31,6.79-.56,13.59Q134.1,355.69,137.13,355.14Z"/><path class="cls-1" d="M230.18,329.93a16.86,16.86,0,0,1-1,6.58A16.14,16.14,0,0,1,226,341.6a20.09,20.09,0,0,1-4.72,3.8,32.88,32.88,0,0,1-5.82,2.69,45.32,45.32,0,0,1-6.45,1.74,62,62,0,0,1-6.58.93l1.29,17.69q-9.18.68-18.33,1.63-.91-8.67-1.76-17.27T182,335.46q-.39-4.63-.92-9.25c-.35-3.07-.6-6.19-.75-9.33a78.14,78.14,0,0,1,10.78-3.21,77.2,77.2,0,0,1,11.31-1.61,43.7,43.7,0,0,1,6.67.06,33.5,33.5,0,0,1,6.43,1.15,28.36,28.36,0,0,1,5.74,2.32,18.19,18.19,0,0,1,4.61,3.51,16.17,16.17,0,0,1,3.1,4.76A16.37,16.37,0,0,1,230.18,329.93ZM211.66,332a4.78,4.78,0,0,0-1.88-3.76,6.43,6.43,0,0,0-4.4-1.11,11.86,11.86,0,0,0-1.82.25q-.94.19-1.77.45l.3,11.12a8.37,8.37,0,0,0,1.12,0l1.12-.08a9.18,9.18,0,0,0,2.84-.65,8,8,0,0,0,2.38-1.46,6.74,6.74,0,0,0,1.61-2.12A5.36,5.36,0,0,0,211.66,332Z"/><path class="cls-1" d="M286.16,340.65a25.94,25.94,0,0,1-4.08,12.5,26.36,26.36,0,0,1-4.13,4.94,25.54,25.54,0,0,1-5.26,3.78,27.31,27.31,0,0,1-20,2.15,27.57,27.57,0,0,1-6.05-2.48,25.64,25.64,0,0,1-5.15-3.77,24.7,24.7,0,0,1-4-4.9,25.24,25.24,0,0,1-2.66-5.8,22.9,22.9,0,0,1-1.06-6.49A24.37,24.37,0,0,1,236.94,328a25.09,25.09,0,0,1,9.27-9.33,26.37,26.37,0,0,1,6.44-2.65,26.71,26.71,0,0,1,7.34-.85,33.85,33.85,0,0,1,11.28,2,24,24,0,0,1,8.47,5.26,21.13,21.13,0,0,1,5.1,8A25,25,0,0,1,286.16,340.65Zm-18.34.12a9.78,9.78,0,0,0-.41-3.19,8.39,8.39,0,0,0-1.43-2.79,7.34,7.34,0,0,0-5.81-2.83,9,9,0,0,0-3.52.59,7.75,7.75,0,0,0-2.67,1.73,7.55,7.55,0,0,0-1.7,2.62,8.64,8.64,0,0,0-.61,3.17,11.07,11.07,0,0,0,.47,3.2,9.45,9.45,0,0,0,1.45,2.91,7.88,7.88,0,0,0,2.4,2.12,6.81,6.81,0,0,0,3.34.85,8.14,8.14,0,0,0,3.45-.62,7.89,7.89,0,0,0,2.64-1.84,8.53,8.53,0,0,0,1.72-2.7A9.32,9.32,0,0,0,267.82,340.77Z"/><path class="cls-1" d="M335.85,318.84q-2.28,7.8-4.52,15.6a14.29,14.29,0,0,0-2.36-.73c-.8-.18-1.6-.32-2.41-.43a22.07,22.07,0,0,0-6,0,14.75,14.75,0,0,0-5.2,1.7,11.14,11.14,0,0,0-3.8,3.42,10.76,10.76,0,0,0-1.8,5.21,8.09,8.09,0,0,0,.33,3.48,6.36,6.36,0,0,0,1.65,2.58,8,8,0,0,0,2.73,1.71,14.2,14.2,0,0,0,3.59.87,18.31,18.31,0,0,0,3.16.06,28.56,28.56,0,0,0,3.3-.4,32.11,32.11,0,0,0,3.23-.73c1.05-.3,2-.61,2.93-.95q-2,8.75-4,17.51a27.24,27.24,0,0,1-3.51.91c-1.25.24-2.52.43-3.81.56s-2.58.21-3.86.22a32.8,32.8,0,0,1-3.65-.18,25.46,25.46,0,0,1-9.17-2.72,24.89,24.89,0,0,1-7.16-5.55,23.73,23.73,0,0,1-4.56-7.73,22.56,22.56,0,0,1-1.25-9.27,35.89,35.89,0,0,1,2.89-12.1,28.07,28.07,0,0,1,6.83-9.61,27.37,27.37,0,0,1,10.65-5.93,34.33,34.33,0,0,1,14.15-1,44.34,44.34,0,0,1,6,1.17A21.2,21.2,0,0,1,335.85,318.84Z"/><path class="cls-1" d="M387.1,355.29a25.75,25.75,0,0,1-2.33,6.31,25.35,25.35,0,0,1-3.75,5.34,25.91,25.91,0,0,1-4.9,4.2,25.28,25.28,0,0,1-5.83,2.87,27.6,27.6,0,0,1-20.14-1.14,27.73,27.73,0,0,1-5.59-3.43,25.88,25.88,0,0,1-4.49-4.57,24.61,24.61,0,0,1-3.16-5.49,25,25,0,0,1-1.7-6.15,23,23,0,0,1,0-6.57,24.26,24.26,0,0,1,5.16-11.87,25,25,0,0,1,4.77-4.52,25.34,25.34,0,0,1,5.92-3.18,26.39,26.39,0,0,1,14.22-1.2,34,34,0,0,1,10.84,3.85,24.19,24.19,0,0,1,7.55,6.58,21.17,21.17,0,0,1,3.76,8.72A24.66,24.66,0,0,1,387.1,355.29Zm-18.21-2.89a10,10,0,0,0,.11-3.22,8.47,8.47,0,0,0-1-3,7.68,7.68,0,0,0-2.08-2.37,7.47,7.47,0,0,0-3.22-1.37,8.79,8.79,0,0,0-3.58,0,7.89,7.89,0,0,0-2.93,1.27,7.62,7.62,0,0,0-2.11,2.3,8.61,8.61,0,0,0-1.11,3,10.89,10.89,0,0,0-.06,3.23,9.34,9.34,0,0,0,1,3.1,7.66,7.66,0,0,0,2,2.49,6.81,6.81,0,0,0,3.17,1.39,8.31,8.31,0,0,0,3.52,0,7.83,7.83,0,0,0,2.91-1.38,8.8,8.8,0,0,0,2.15-2.39A9.6,9.6,0,0,0,368.89,352.4Z"/><path class="cls-1" d="M419.92,332.93q-7,18.84-13.81,37.75-7.32-2-14.67-3.73,3.94-19.65,7.79-39.32Q409.61,330.1,419.92,332.93ZM403.7,382.17a7.27,7.27,0,0,1-1.47,2.84,8.61,8.61,0,0,1-2.4,2,8.51,8.51,0,0,1-3,1,8.74,8.74,0,0,1-6.26-1.59,8.65,8.65,0,0,1-2.15-2.29,8.15,8.15,0,0,1-1.15-2.89,7.73,7.73,0,0,1,1.46-6.07,7.81,7.81,0,0,1,2.37-2.07,9.07,9.07,0,0,1,3-1,8.76,8.76,0,0,1,6.42,1.63,9.14,9.14,0,0,1,2.17,2.36,8.22,8.22,0,0,1,1.12,3A7.47,7.47,0,0,1,403.7,382.17Z"/></svg>
